<?xml version="1.0" encoding="utf-8"?>
<!-- Generator: Adobe Illustrator 16.0.0, SVG Export Plug-In . SVG Version: 6.00 Build 0)  -->
<!DOCTYPE svg PUBLIC "-//W3C//DTD SVG 1.1//EN" "http://www.w3.org/Graphics/SVG/1.1/DTD/svg11.dtd">
<svg version="1.1" id="Layer_1" xmlns="http://www.w3.org/2000/svg" xmlns:xlink="http://www.w3.org/1999/xlink" x="0px" y="0px"
	 width="294.019px" height="296.605px" viewBox="0 0 294.019 296.605" enable-background="new 0 0 294.019 296.605"
	 xml:space="preserve">
<rect x="58.73" y="263.3" fill="none" stroke="#EBEBEB" stroke-width="9" stroke-linecap="round" stroke-linejoin="round" stroke-miterlimit="10" width="32.952" height="28.805"/>
<rect x="108.19" y="216.674" fill="none" stroke="#EBEBEB" stroke-width="9" stroke-linecap="round" stroke-linejoin="round" stroke-miterlimit="10" width="32.952" height="75.431"/>
<rect x="157.648" y="168.848" fill="none" stroke="#EBEBEB" stroke-width="9" stroke-linecap="round" stroke-linejoin="round" stroke-miterlimit="10" width="32.951" height="123.257"/>
<rect x="207.108" y="116.417" fill="none" stroke="#EBEBEB" stroke-width="9" stroke-linecap="round" stroke-linejoin="round" stroke-miterlimit="10" width="32.951" height="175.688"/>
<rect x="256.567" y="65.615" fill="none" stroke="#EBEBEB" stroke-width="9" stroke-linecap="round" stroke-linejoin="round" stroke-miterlimit="10" width="32.951" height="226.49"/>
<g>
	<g>
		<polyline fill="none" stroke="#EBEBEB" stroke-width="9" stroke-linecap="round" stroke-linejoin="round" points="4.5,292.105 
			42.939,292.105 42.939,247.541 91.682,247.541 91.682,200.916 141.142,200.916 141.142,151.917 190.6,151.917 190.6,99.816 
			240.06,99.816 240.06,49.558 273.043,49.558 273.043,10.287 		"/>
		<g>
			<polygon fill="#EBEBEB" points="288.301,28.213 273.043,12.946 257.785,28.213 257.785,15.258 273.043,0 288.301,15.258 			"/>
		</g>
	</g>
</g>
<path fill="none" stroke="#EBEBEB" stroke-width="9" stroke-linecap="round" stroke-linejoin="round" stroke-miterlimit="10" d="
	M41.538,137.621c0.3,7.649-5.658,14.09-13.306,14.391c-7.647,0.299-14.09-5.658-14.39-13.307c-0.3-7.647,5.657-14.088,13.305-14.388
	c4.512-0.177,8.604,1.823,11.263,5.064C40.26,131.635,41.415,134.486,41.538,137.621z"/>
<line fill="none" stroke="#EBEBEB" stroke-width="9" stroke-linecap="round" stroke-linejoin="round" stroke-miterlimit="10" x1="34.915" y1="126.339" x2="59.394" y2="91.645"/>
<path fill="none" stroke="#EBEBEB" stroke-width="9" stroke-linecap="round" stroke-linejoin="round" stroke-miterlimit="10" d="
	M154.971,44.481c-0.3-7.648,5.658-14.091,13.306-14.391s14.089,5.657,14.389,13.306c0.3,7.647-5.656,14.089-13.304,14.389
	c-4.513,0.177-8.604-1.823-11.263-5.064C156.249,50.467,155.094,47.616,154.971,44.481z"/>
<line fill="none" stroke="#EBEBEB" stroke-width="9" stroke-linecap="round" stroke-linejoin="round" stroke-miterlimit="10" x1="161.594" y1="55.86" x2="134.5" y2="98.069"/>
<path fill="none" stroke="#EBEBEB" stroke-width="9" stroke-linecap="round" stroke-linejoin="round" stroke-miterlimit="10" d="
	M127.038,97.197c7.629,0.638,13.295,7.337,12.657,14.965c-0.636,7.626-7.336,13.293-14.964,12.656
	c-7.627-0.638-13.292-7.337-12.655-14.964c0.376-4.499,2.861-8.317,6.403-10.56C120.941,97.735,123.912,96.937,127.038,97.197z"/>
<path fill="none" stroke="#EBEBEB" stroke-width="9" stroke-linecap="round" stroke-linejoin="round" stroke-miterlimit="10" d="
	M70.365,63.976c7.627,0.637,13.294,7.336,12.657,14.964c-0.638,7.626-7.337,13.293-14.965,12.656
	c-7.626-0.638-13.292-7.337-12.654-14.964c0.374-4.499,2.859-8.317,6.401-10.56C64.268,64.513,67.238,63.715,70.365,63.976z"/>
<line fill="none" stroke="#EBEBEB" stroke-width="9" stroke-linecap="round" stroke-linejoin="round" stroke-miterlimit="10" x1="112.027" y1="101.758" x2="83.071" y2="85.59"/>
<g>
</g>
<g>
</g>
<g>
</g>
<g>
</g>
<g>
</g>
<g>
</g>
<g>
</g>
</svg>
