<?xml version="1.0" encoding="utf-8"?>
<!-- Generator: Adobe Illustrator 16.0.0, SVG Export Plug-In . SVG Version: 6.00 Build 0)  -->
<!DOCTYPE svg PUBLIC "-//W3C//DTD SVG 1.1//EN" "http://www.w3.org/Graphics/SVG/1.1/DTD/svg11.dtd">
<svg version="1.1" id="Layer_1" xmlns="http://www.w3.org/2000/svg" xmlns:xlink="http://www.w3.org/1999/xlink" x="0px" y="0px"
	 width="671.561px" height="234.749px" viewBox="0 0 671.561 234.749" enable-background="new 0 0 671.561 234.749"
	 xml:space="preserve">
<g>
	<g>
		<path d="M32.489,0.483v4.774H11.701v15.138h17.767v4.774H11.701v18.612H5.809V0.483H32.489z"/>
		<path d="M82.949,22.148c0,3.243-0.514,6.219-1.541,8.928c-1.027,2.71-2.478,5.042-4.351,6.995
			c-1.873,1.954-4.124,3.471-6.753,4.548s-5.535,1.616-8.717,1.616c-3.183,0-6.083-0.539-8.702-1.616s-4.864-2.594-6.738-4.548
			c-1.874-1.953-3.324-4.285-4.351-6.995c-1.027-2.709-1.541-5.685-1.541-8.928s0.514-6.22,1.541-8.929s2.478-5.046,4.351-7.011
			c1.874-1.964,4.119-3.489,6.738-4.577S58.403,0,61.586,0c3.183,0,6.088,0.544,8.717,1.632s4.88,2.613,6.753,4.577
			c1.874,1.965,3.324,4.302,4.351,7.011S82.949,18.905,82.949,22.148z M76.936,22.148c0-2.659-0.363-5.047-1.088-7.161
			c-0.725-2.115-1.752-3.903-3.082-5.363c-1.33-1.461-2.941-2.584-4.834-3.369c-1.894-0.786-4.009-1.179-6.345-1.179
			c-2.316,0-4.422,0.393-6.315,1.179c-1.894,0.785-3.51,1.908-4.85,3.369c-1.34,1.46-2.372,3.248-3.097,5.363
			c-0.725,2.114-1.087,4.502-1.087,7.161c0,2.658,0.362,5.041,1.087,7.146c0.725,2.105,1.757,3.888,3.097,5.348
			c1.339,1.461,2.956,2.579,4.85,3.354c1.893,0.775,3.999,1.163,6.315,1.163c2.336,0,4.452-0.388,6.345-1.163
			c1.893-0.775,3.505-1.894,4.834-3.354c1.33-1.46,2.357-3.242,3.082-5.348C76.573,27.189,76.936,24.807,76.936,22.148z"/>
		<path d="M115.853,7.252c-0.181,0.302-0.373,0.528-0.574,0.68c-0.202,0.151-0.463,0.227-0.786,0.227
			c-0.343,0-0.74-0.171-1.193-0.514c-0.453-0.342-1.027-0.72-1.722-1.133s-1.531-0.79-2.508-1.133
			c-0.978-0.343-2.161-0.514-3.55-0.514c-1.31,0-2.468,0.176-3.475,0.528s-1.848,0.831-2.523,1.436
			c-0.675,0.604-1.184,1.314-1.526,2.13c-0.343,0.815-0.514,1.697-0.514,2.644c0,1.209,0.297,2.211,0.892,3.007
			c0.594,0.796,1.379,1.476,2.357,2.039c0.977,0.564,2.084,1.053,3.323,1.466c1.239,0.413,2.508,0.841,3.808,1.284
			c1.299,0.443,2.568,0.941,3.807,1.496c1.239,0.554,2.346,1.254,3.323,2.1s1.763,1.884,2.357,3.112s0.892,2.739,0.892,4.532
			c0,1.894-0.323,3.671-0.967,5.333s-1.586,3.107-2.825,4.336c-1.239,1.229-2.76,2.195-4.562,2.9
			c-1.803,0.705-3.853,1.058-6.149,1.058c-2.8,0-5.354-0.509-7.66-1.525c-2.307-1.018-4.275-2.393-5.907-4.125l1.692-2.779
			c0.161-0.222,0.357-0.408,0.589-0.56c0.231-0.15,0.488-0.227,0.771-0.227c0.423,0,0.907,0.227,1.45,0.68
			c0.544,0.453,1.224,0.952,2.04,1.496c0.816,0.544,1.803,1.042,2.961,1.495c1.158,0.454,2.573,0.681,4.245,0.681
			c1.39,0,2.629-0.191,3.716-0.574c1.088-0.383,2.01-0.922,2.765-1.617c0.755-0.694,1.334-1.525,1.737-2.492
			c0.402-0.967,0.604-2.044,0.604-3.233c0-1.309-0.297-2.382-0.891-3.218c-0.594-0.836-1.375-1.536-2.342-2.1
			c-0.967-0.564-2.07-1.043-3.309-1.436s-2.508-0.796-3.807-1.209c-1.299-0.412-2.568-0.891-3.807-1.435s-2.342-1.249-3.309-2.115
			s-1.748-1.949-2.342-3.248c-0.594-1.3-0.891-2.905-0.891-4.819c0-1.531,0.297-3.012,0.891-4.442
			c0.594-1.43,1.455-2.698,2.583-3.807c1.128-1.107,2.523-1.994,4.185-2.659C101.364,0.332,103.272,0,105.428,0
			c2.417,0,4.623,0.383,6.617,1.148s3.736,1.873,5.227,3.323L115.853,7.252z"/>
		<path d="M157.852,0.483v4.925h-13.99v38.374H138V5.408h-14.05V0.483H157.852z"/>
		<path d="M193.415,0.483v4.774h-20.788V19.64h16.83v4.593h-16.83v14.775h20.788v4.774h-26.68V0.483H193.415z"/>
		<path d="M211,25.714v18.068h-5.832V0.483h12.237c2.739,0,5.106,0.277,7.101,0.831c1.994,0.555,3.641,1.355,4.94,2.402
			c1.299,1.048,2.261,2.312,2.886,3.792c0.624,1.48,0.937,3.138,0.937,4.971c0,1.53-0.242,2.961-0.725,4.29
			c-0.483,1.33-1.184,2.523-2.1,3.581c-0.917,1.058-2.035,1.959-3.354,2.704c-1.32,0.745-2.815,1.31-4.487,1.691
			c0.726,0.424,1.37,1.038,1.934,1.844l12.63,17.192h-5.197c-1.068,0-1.854-0.413-2.357-1.239l-11.24-15.47
			c-0.343-0.483-0.715-0.831-1.118-1.043c-0.403-0.211-1.007-0.316-1.812-0.316H211z M211,21.453h6.134
			c1.712,0,3.218-0.206,4.517-0.619s2.387-0.997,3.263-1.753c0.876-0.755,1.536-1.656,1.979-2.704
			c0.443-1.047,0.665-2.206,0.665-3.475c0-2.578-0.851-4.522-2.553-5.832c-1.703-1.309-4.235-1.964-7.599-1.964H211V21.453z"/>
		<path d="M253.15,43.782h-5.862V0.483h5.862V43.782z"/>
		<path d="M271.657,0.68c0.251,0.132,0.539,0.398,0.861,0.801l25.079,32.633c-0.061-0.523-0.101-1.032-0.121-1.525
			c-0.02-0.494-0.03-0.972-0.03-1.436V0.483h5.137v43.299h-2.961c-0.464,0-0.851-0.08-1.164-0.242
			c-0.312-0.16-0.619-0.433-0.921-0.815l-25.048-32.603c0.04,0.504,0.07,0.997,0.09,1.48s0.03,0.927,0.03,1.33v30.85h-5.137V0.483
			h3.021C271.018,0.483,271.405,0.549,271.657,0.68z"/>
		<path d="M335.185,39.521c1.168,0,2.241-0.055,3.218-0.166c0.977-0.11,1.898-0.276,2.765-0.498
			c0.866-0.222,1.682-0.488,2.448-0.801s1.53-0.67,2.296-1.073v-9.548h-6.708c-0.383,0-0.69-0.11-0.922-0.332
			c-0.232-0.222-0.347-0.493-0.347-0.816v-3.323h13.294v16.618c-1.087,0.786-2.221,1.471-3.398,2.055
			c-1.179,0.585-2.438,1.073-3.777,1.466s-2.775,0.685-4.306,0.876s-3.193,0.287-4.985,0.287c-3.143,0-6.023-0.539-8.642-1.616
			c-2.619-1.077-4.875-2.589-6.768-4.532c-1.894-1.944-3.369-4.275-4.427-6.995s-1.586-5.711-1.586-8.974
			c0-3.304,0.519-6.315,1.556-9.035c1.037-2.719,2.518-5.051,4.442-6.994c1.923-1.944,4.25-3.449,6.979-4.518
			C329.046,0.534,332.103,0,335.487,0c1.712,0,3.304,0.126,4.774,0.378c1.47,0.252,2.835,0.614,4.095,1.088
			c1.258,0.474,2.422,1.047,3.49,1.722c1.066,0.676,2.064,1.436,2.99,2.281l-1.662,2.659c-0.342,0.544-0.785,0.816-1.328,0.816
			c-0.323,0-0.676-0.111-1.059-0.333c-0.504-0.281-1.067-0.624-1.691-1.027c-0.625-0.402-1.385-0.79-2.281-1.163
			c-0.896-0.372-1.955-0.689-3.173-0.952c-1.219-0.261-2.664-0.393-4.336-0.393c-2.438,0-4.643,0.398-6.617,1.193
			c-1.975,0.796-3.656,1.934-5.046,3.415c-1.39,1.48-2.458,3.273-3.203,5.378c-0.745,2.105-1.118,4.467-1.118,7.086
			c0,2.739,0.388,5.182,1.163,7.327c0.775,2.145,1.868,3.963,3.278,5.453c1.41,1.491,3.082,2.629,5.016,3.415
			C330.713,39.129,332.848,39.521,335.185,39.521z"/>
		<path d="M396.582,39.521c1.168,0,2.24-0.055,3.218-0.166c0.977-0.11,1.898-0.276,2.765-0.498s1.682-0.488,2.447-0.801
			s1.53-0.67,2.297-1.073v-9.548h-6.708c-0.383,0-0.69-0.11-0.922-0.332s-0.348-0.493-0.348-0.816v-3.323h13.295v16.618
			c-1.088,0.786-2.221,1.471-3.399,2.055c-1.178,0.585-2.438,1.073-3.776,1.466c-1.34,0.393-2.775,0.685-4.306,0.876
			c-1.531,0.191-3.193,0.287-4.985,0.287c-3.143,0-6.023-0.539-8.642-1.616c-2.619-1.077-4.876-2.589-6.769-4.532
			c-1.894-1.944-3.369-4.275-4.427-6.995s-1.586-5.711-1.586-8.974c0-3.304,0.518-6.315,1.556-9.035
			c1.037-2.719,2.518-5.051,4.441-6.994c1.924-1.944,4.25-3.449,6.98-4.518C390.442,0.534,393.5,0,396.884,0
			c1.712,0,3.304,0.126,4.774,0.378c1.47,0.252,2.835,0.614,4.094,1.088s2.422,1.047,3.49,1.722
			c1.067,0.676,2.064,1.436,2.991,2.281l-1.662,2.659c-0.343,0.544-0.785,0.816-1.329,0.816c-0.322,0-0.676-0.111-1.058-0.333
			c-0.504-0.281-1.068-0.624-1.692-1.027c-0.624-0.402-1.385-0.79-2.281-1.163c-0.896-0.372-1.954-0.689-3.173-0.952
			c-1.219-0.261-2.664-0.393-4.336-0.393c-2.438,0-4.643,0.398-6.617,1.193c-1.974,0.796-3.655,1.934-5.046,3.415
			c-1.39,1.48-2.457,3.273-3.202,5.378c-0.746,2.105-1.118,4.467-1.118,7.086c0,2.739,0.388,5.182,1.163,7.327
			c0.775,2.145,1.868,3.963,3.278,5.453c1.41,1.491,3.082,2.629,5.016,3.415C392.109,39.129,394.245,39.521,396.582,39.521z"/>
		<path d="M430.725,25.714v18.068h-5.832V0.483h12.237c2.739,0,5.106,0.277,7.101,0.831c1.995,0.555,3.642,1.355,4.94,2.402
			c1.3,1.048,2.261,2.312,2.886,3.792c0.624,1.48,0.937,3.138,0.937,4.971c0,1.53-0.241,2.961-0.725,4.29
			c-0.483,1.33-1.184,2.523-2.101,3.581s-2.034,1.959-3.354,2.704s-2.815,1.31-4.487,1.691c0.726,0.424,1.37,1.038,1.934,1.844
			l12.631,17.192h-5.197c-1.068,0-1.854-0.413-2.357-1.239l-11.239-15.47c-0.343-0.483-0.716-0.831-1.118-1.043
			c-0.403-0.211-1.008-0.316-1.813-0.316H430.725z M430.725,21.453h6.134c1.712,0,3.218-0.206,4.518-0.619
			c1.299-0.413,2.387-0.997,3.263-1.753c0.876-0.755,1.536-1.656,1.979-2.704c0.442-1.047,0.664-2.206,0.664-3.475
			c0-2.578-0.851-4.522-2.553-5.832c-1.702-1.309-4.235-1.964-7.6-1.964h-6.405V21.453z"/>
		<path d="M504.692,22.148c0,3.243-0.514,6.219-1.541,8.928c-1.027,2.71-2.479,5.042-4.352,6.995
			c-1.873,1.954-4.124,3.471-6.753,4.548s-5.535,1.616-8.717,1.616c-3.184,0-6.084-0.539-8.702-1.616
			c-2.619-1.077-4.865-2.594-6.738-4.548c-1.873-1.953-3.324-4.285-4.351-6.995c-1.027-2.709-1.541-5.685-1.541-8.928
			s0.514-6.22,1.541-8.929c1.026-2.709,2.478-5.046,4.351-7.011c1.873-1.964,4.119-3.489,6.738-4.577
			C477.246,0.544,480.146,0,483.33,0c3.182,0,6.088,0.544,8.717,1.632s4.88,2.613,6.753,4.577c1.873,1.965,3.324,4.302,4.352,7.011
			S504.692,18.905,504.692,22.148z M498.679,22.148c0-2.659-0.362-5.047-1.087-7.161c-0.726-2.115-1.753-3.903-3.082-5.363
			c-1.33-1.461-2.941-2.584-4.835-3.369c-1.894-0.786-4.009-1.179-6.345-1.179c-2.317,0-4.422,0.393-6.315,1.179
			c-1.894,0.785-3.51,1.908-4.85,3.369c-1.34,1.46-2.372,3.248-3.097,5.363c-0.726,2.114-1.088,4.502-1.088,7.161
			c0,2.658,0.362,5.041,1.088,7.146c0.725,2.105,1.757,3.888,3.097,5.348c1.34,1.461,2.956,2.579,4.85,3.354
			s3.998,1.163,6.315,1.163c2.336,0,4.451-0.388,6.345-1.163s3.505-1.894,4.835-3.354c1.329-1.46,2.356-3.242,3.082-5.348
			C498.316,27.189,498.679,24.807,498.679,22.148z"/>
		<path d="M510.583,0.483h4.865c0.523,0,0.956,0.132,1.299,0.393c0.343,0.263,0.574,0.595,0.695,0.997l8.943,30.095
			c0.161,0.544,0.307,1.129,0.438,1.753c0.131,0.624,0.257,1.279,0.377,1.964c0.142-0.685,0.282-1.345,0.424-1.979
			c0.141-0.634,0.302-1.213,0.483-1.737l10.183-30.095c0.12-0.342,0.357-0.659,0.71-0.951c0.352-0.292,0.78-0.438,1.284-0.438h1.691
			c0.524,0,0.952,0.132,1.284,0.393c0.333,0.263,0.569,0.595,0.71,0.997l10.123,30.095c0.362,1.048,0.685,2.246,0.967,3.596
			c0.12-0.665,0.231-1.299,0.332-1.903s0.231-1.168,0.393-1.692l8.975-30.095c0.101-0.362,0.327-0.685,0.68-0.967
			c0.352-0.281,0.78-0.423,1.284-0.423h4.562l-13.507,43.299h-5.257l-10.969-33.025c-0.222-0.624-0.423-1.35-0.604-2.176
			c-0.101,0.403-0.196,0.791-0.286,1.163c-0.091,0.373-0.187,0.711-0.287,1.013l-11.029,33.025h-5.257L510.583,0.483z"/>
		<path d="M609.146,0.483v4.925h-13.99v38.374h-5.861V5.408h-14.051V0.483H609.146z"/>
		<path d="M653.14,43.782h-5.893v-19.7h-23.326v19.7h-5.892V0.483h5.892v19.308h23.326V0.483h5.893V43.782z"/>
		<path d="M663.774,40.459c0-0.524,0.095-1.018,0.287-1.481c0.191-0.463,0.453-0.865,0.785-1.208
			c0.333-0.343,0.73-0.614,1.193-0.816c0.464-0.201,0.957-0.302,1.48-0.302c0.524,0,1.018,0.101,1.48,0.302
			c0.464,0.202,0.866,0.474,1.209,0.816s0.609,0.745,0.801,1.208c0.191,0.464,0.287,0.957,0.287,1.481
			c0,0.543-0.096,1.042-0.287,1.495s-0.458,0.852-0.801,1.193c-0.343,0.343-0.745,0.609-1.209,0.801
			c-0.463,0.191-0.956,0.287-1.48,0.287c-0.523,0-1.017-0.096-1.48-0.287c-0.463-0.191-0.86-0.458-1.193-0.801
			c-0.332-0.342-0.594-0.74-0.785-1.193C663.869,41.501,663.774,41.002,663.774,40.459z"/>
	</g>
</g>
<g>
	<path d="M33.056,109.564c0.322,0,0.614,0.131,0.876,0.393l2.296,2.508c-1.773,2.055-3.923,3.656-6.451,4.804
		c-2.528,1.148-5.575,1.723-9.14,1.723c-3.123,0-5.952-0.539-8.49-1.616s-4.704-2.589-6.497-4.532
		c-1.793-1.944-3.183-4.275-4.17-6.995S0,100.137,0,96.874c0-3.264,0.529-6.255,1.586-8.975c1.058-2.719,2.543-5.056,4.457-7.01
		c1.913-1.954,4.205-3.47,6.874-4.548c2.669-1.077,5.615-1.616,8.838-1.616c3.183,0,5.927,0.494,8.233,1.48
		c2.307,0.987,4.356,2.327,6.149,4.019l-1.903,2.689c-0.141,0.201-0.302,0.368-0.483,0.499c-0.182,0.131-0.443,0.196-0.786,0.196
		c-0.262,0-0.54-0.096-0.831-0.287c-0.292-0.191-0.64-0.428-1.042-0.71c-0.403-0.282-0.876-0.584-1.42-0.907
		c-0.544-0.321-1.189-0.624-1.934-0.906c-0.746-0.281-1.612-0.519-2.599-0.71s-2.125-0.287-3.414-0.287
		c-2.317,0-4.437,0.398-6.36,1.193c-1.924,0.796-3.581,1.93-4.971,3.399c-1.39,1.471-2.473,3.264-3.248,5.379
		c-0.775,2.114-1.163,4.481-1.163,7.101c0,2.699,0.388,5.106,1.163,7.221c0.775,2.115,1.833,3.903,3.173,5.363
		c1.339,1.461,2.926,2.574,4.759,3.339c1.833,0.766,3.807,1.148,5.922,1.148c1.289,0,2.447-0.075,3.475-0.227
		s1.979-0.388,2.855-0.71c0.876-0.322,1.692-0.73,2.447-1.224s1.516-1.083,2.281-1.768
		C32.401,109.715,32.733,109.564,33.056,109.564z"/>
	<path d="M79.043,118.508h-5.892v-19.7H49.825v19.7h-5.892V75.209h5.892v19.308h23.326V75.209h5.892V118.508z"/>
	<path d="M125.243,118.508h-4.532c-0.524,0-0.947-0.131-1.269-0.393c-0.322-0.262-0.564-0.594-0.725-0.997l-4.049-10.455H95.239
		l-4.049,10.455c-0.141,0.362-0.383,0.685-0.725,0.967c-0.343,0.282-0.766,0.423-1.269,0.423h-4.532l17.313-43.299h5.952
		L125.243,118.508z M96.871,102.434h16.165l-6.798-17.616c-0.443-1.088-0.876-2.447-1.299-4.079
		c-0.222,0.826-0.438,1.587-0.649,2.281c-0.212,0.695-0.418,1.305-0.62,1.828L96.871,102.434z"/>
	<path d="M134.896,75.405c0.251,0.132,0.539,0.398,0.861,0.801l25.079,32.633c-0.061-0.523-0.101-1.032-0.121-1.525
		c-0.02-0.494-0.03-0.972-0.03-1.436V75.209h5.137v43.299h-2.961c-0.464,0-0.851-0.08-1.164-0.242
		c-0.312-0.16-0.619-0.433-0.921-0.815l-25.048-32.603c0.04,0.504,0.07,0.997,0.09,1.48s0.03,0.927,0.03,1.33v30.85h-5.137V75.209
		h3.021C134.256,75.209,134.644,75.274,134.896,75.405z"/>
	<path d="M180.582,75.405c0.251,0.132,0.539,0.398,0.861,0.801l25.079,32.633c-0.061-0.523-0.101-1.032-0.121-1.525
		c-0.02-0.494-0.03-0.972-0.03-1.436V75.209h5.137v43.299h-2.961c-0.464,0-0.851-0.08-1.164-0.242
		c-0.312-0.16-0.619-0.433-0.921-0.815l-25.048-32.603c0.04,0.504,0.07,0.997,0.09,1.48s0.03,0.927,0.03,1.33v30.85h-5.137V75.209
		h3.021C179.942,75.209,180.33,75.274,180.582,75.405z"/>
	<path d="M248.762,75.209v4.774h-20.788v14.382h16.83v4.593h-16.83v14.775h20.788v4.774h-26.68V75.209H248.762z"/>
	<path d="M263.054,113.583h18.734v4.925h-24.596V75.209h5.862V113.583z"/>
	<path d="M295.203,118.508h-5.862V75.209h5.862V118.508z"/>
	<path d="M310.99,75.405c0.251,0.132,0.539,0.398,0.861,0.801l25.079,32.633c-0.061-0.523-0.101-1.032-0.121-1.525
		c-0.02-0.494-0.03-0.972-0.03-1.436V75.209h5.137v43.299h-2.961c-0.464,0-0.851-0.08-1.164-0.242
		c-0.312-0.16-0.619-0.433-0.921-0.815l-25.048-32.603c0.04,0.504,0.07,0.997,0.09,1.48s0.03,0.927,0.03,1.33v30.85h-5.137V75.209
		h3.021C310.35,75.209,310.738,75.274,310.99,75.405z"/>
	<path d="M371.799,114.247c1.168,0,2.24-0.055,3.217-0.166c0.977-0.11,1.898-0.276,2.766-0.498c0.865-0.222,1.682-0.488,2.447-0.801
		s1.529-0.67,2.297-1.073v-9.548h-6.709c-0.383,0-0.689-0.11-0.922-0.332c-0.23-0.222-0.348-0.493-0.348-0.816v-3.323h13.295v16.618
		c-1.088,0.786-2.221,1.471-3.398,2.055c-1.178,0.585-2.438,1.073-3.777,1.466s-2.775,0.685-4.305,0.876
		c-1.531,0.191-3.193,0.287-4.986,0.287c-3.143,0-6.023-0.539-8.642-1.616s-4.875-2.589-6.769-4.532
		c-1.894-1.944-3.369-4.275-4.426-6.995c-1.059-2.72-1.587-5.711-1.587-8.974c0-3.304,0.519-6.315,1.556-9.035
		c1.037-2.719,2.519-5.051,4.442-6.994c1.923-1.944,4.25-3.449,6.979-4.518c2.729-1.067,5.787-1.602,9.17-1.602
		c1.713,0,3.305,0.126,4.775,0.378c1.469,0.252,2.834,0.614,4.094,1.088c1.258,0.474,2.422,1.047,3.49,1.722
		c1.066,0.676,2.064,1.436,2.99,2.281l-1.662,2.659c-0.342,0.544-0.785,0.816-1.328,0.816c-0.322,0-0.676-0.111-1.059-0.333
		c-0.504-0.281-1.068-0.624-1.691-1.027c-0.625-0.402-1.385-0.79-2.281-1.163c-0.896-0.372-1.955-0.689-3.174-0.952
		c-1.219-0.261-2.664-0.393-4.336-0.393c-2.438,0-4.643,0.398-6.616,1.193c-1.975,0.796-3.656,1.934-5.046,3.415
		c-1.391,1.48-2.458,3.273-3.203,5.378c-0.745,2.105-1.117,4.467-1.117,7.086c0,2.739,0.387,5.182,1.162,7.327
		c0.775,2.145,1.869,3.963,3.279,5.453c1.409,1.491,3.082,2.629,5.016,3.415C367.326,113.854,369.461,114.247,371.799,114.247z"/>
	<path d="M430.687,81.978c-0.182,0.302-0.373,0.528-0.574,0.68s-0.464,0.227-0.785,0.227c-0.343,0-0.74-0.171-1.193-0.514
		c-0.454-0.342-1.027-0.72-1.723-1.133s-1.531-0.79-2.508-1.133c-0.978-0.343-2.16-0.514-3.551-0.514
		c-1.31,0-2.468,0.176-3.475,0.528s-1.848,0.831-2.522,1.436c-0.676,0.604-1.184,1.314-1.526,2.13s-0.514,1.697-0.514,2.644
		c0,1.209,0.297,2.211,0.892,3.007c0.594,0.796,1.38,1.476,2.356,2.039c0.978,0.564,2.085,1.053,3.324,1.466
		c1.238,0.413,2.508,0.841,3.807,1.284c1.3,0.443,2.568,0.941,3.808,1.496c1.238,0.554,2.346,1.254,3.323,2.1
		c0.977,0.846,1.763,1.884,2.357,3.112c0.594,1.229,0.891,2.739,0.891,4.532c0,1.894-0.322,3.671-0.967,5.333
		s-1.586,3.107-2.825,4.336c-1.238,1.229-2.76,2.195-4.562,2.9s-3.853,1.058-6.148,1.058c-2.8,0-5.354-0.509-7.66-1.525
		c-2.307-1.018-4.275-2.393-5.906-4.125l1.691-2.779c0.161-0.222,0.357-0.408,0.59-0.56c0.23-0.15,0.487-0.227,0.771-0.227
		c0.423,0,0.906,0.227,1.45,0.68s1.224,0.952,2.039,1.496c0.816,0.544,1.803,1.042,2.961,1.495c1.158,0.454,2.573,0.681,4.246,0.681
		c1.39,0,2.628-0.191,3.716-0.574s2.01-0.922,2.765-1.617c0.756-0.694,1.334-1.525,1.737-2.492s0.604-2.044,0.604-3.233
		c0-1.309-0.297-2.382-0.892-3.218c-0.594-0.836-1.374-1.536-2.341-2.1c-0.968-0.564-2.07-1.043-3.309-1.436
		c-1.239-0.393-2.509-0.796-3.808-1.209c-1.299-0.412-2.568-0.891-3.807-1.435c-1.239-0.544-2.342-1.249-3.309-2.115
		c-0.968-0.866-1.748-1.949-2.342-3.248c-0.595-1.3-0.892-2.905-0.892-4.819c0-1.531,0.297-3.012,0.892-4.442
		c0.594-1.43,1.455-2.698,2.583-3.807c1.128-1.107,2.523-1.994,4.185-2.659c1.662-0.665,3.57-0.997,5.727-0.997
		c2.417,0,4.622,0.383,6.617,1.148c1.994,0.766,3.736,1.873,5.227,3.323L430.687,81.978z"/>
	<path d="M457.367,113.854c1.792,0,3.394-0.302,4.804-0.906s2.604-1.45,3.581-2.538c0.977-1.088,1.722-2.387,2.235-3.897
		s0.771-3.173,0.771-4.986V75.209h5.832v26.317c0,2.498-0.398,4.815-1.193,6.95c-0.797,2.135-1.935,3.983-3.415,5.544
		c-1.48,1.562-3.288,2.785-5.424,3.672c-2.135,0.886-4.532,1.329-7.19,1.329c-2.659,0-5.057-0.443-7.191-1.329
		c-2.136-0.887-3.948-2.11-5.439-3.672c-1.49-1.561-2.634-3.409-3.429-5.544c-0.796-2.135-1.194-4.452-1.194-6.95V75.209h5.832
		v26.287c0,1.813,0.257,3.476,0.771,4.986s1.259,2.81,2.236,3.897c0.977,1.088,2.175,1.939,3.596,2.553
		C453.968,113.548,455.573,113.854,457.367,113.854z"/>
	<path d="M515.169,109.564c0.321,0,0.614,0.131,0.876,0.393l2.296,2.508c-1.772,2.055-3.923,3.656-6.45,4.804
		c-2.528,1.148-5.575,1.723-9.141,1.723c-3.122,0-5.952-0.539-8.49-1.616s-4.704-2.589-6.496-4.532
		c-1.794-1.944-3.184-4.275-4.17-6.995c-0.987-2.72-1.48-5.711-1.48-8.974c0-3.264,0.528-6.255,1.586-8.975
		c1.058-2.719,2.543-5.056,4.457-7.01c1.913-1.954,4.204-3.47,6.874-4.548c2.669-1.077,5.614-1.616,8.838-1.616
		c3.183,0,5.927,0.494,8.233,1.48c2.307,0.987,4.355,2.327,6.149,4.019l-1.904,2.689c-0.141,0.201-0.302,0.368-0.483,0.499
		c-0.181,0.131-0.443,0.196-0.785,0.196c-0.263,0-0.539-0.096-0.831-0.287s-0.64-0.428-1.043-0.71
		c-0.402-0.282-0.876-0.584-1.42-0.907c-0.544-0.321-1.188-0.624-1.934-0.906c-0.745-0.281-1.611-0.519-2.599-0.71
		s-2.125-0.287-3.414-0.287c-2.316,0-4.438,0.398-6.36,1.193c-1.924,0.796-3.581,1.93-4.971,3.399
		c-1.39,1.471-2.473,3.264-3.248,5.379c-0.775,2.114-1.163,4.481-1.163,7.101c0,2.699,0.388,5.106,1.163,7.221
		c0.775,2.115,1.833,3.903,3.173,5.363c1.339,1.461,2.926,2.574,4.759,3.339c1.833,0.766,3.808,1.148,5.922,1.148
		c1.289,0,2.448-0.075,3.476-0.227c1.026-0.151,1.979-0.388,2.854-0.71c0.877-0.322,1.692-0.73,2.448-1.224
		c0.755-0.493,1.515-1.083,2.281-1.768C514.514,109.715,514.846,109.564,515.169,109.564z"/>
	<path d="M556.564,109.564c0.321,0,0.614,0.131,0.876,0.393l2.296,2.508c-1.772,2.055-3.923,3.656-6.45,4.804
		c-2.528,1.148-5.575,1.723-9.141,1.723c-3.122,0-5.952-0.539-8.49-1.616s-4.704-2.589-6.496-4.532
		c-1.794-1.944-3.184-4.275-4.17-6.995c-0.987-2.72-1.48-5.711-1.48-8.974c0-3.264,0.528-6.255,1.586-8.975
		c1.058-2.719,2.543-5.056,4.457-7.01c1.913-1.954,4.204-3.47,6.874-4.548c2.669-1.077,5.614-1.616,8.838-1.616
		c3.183,0,5.927,0.494,8.233,1.48c2.307,0.987,4.355,2.327,6.149,4.019l-1.904,2.689c-0.141,0.201-0.302,0.368-0.483,0.499
		c-0.181,0.131-0.443,0.196-0.785,0.196c-0.263,0-0.539-0.096-0.831-0.287s-0.64-0.428-1.043-0.71
		c-0.402-0.282-0.876-0.584-1.42-0.907c-0.544-0.321-1.188-0.624-1.934-0.906c-0.745-0.281-1.611-0.519-2.599-0.71
		s-2.125-0.287-3.414-0.287c-2.316,0-4.438,0.398-6.36,1.193c-1.924,0.796-3.581,1.93-4.971,3.399
		c-1.39,1.471-2.473,3.264-3.248,5.379c-0.775,2.114-1.163,4.481-1.163,7.101c0,2.699,0.388,5.106,1.163,7.221
		c0.775,2.115,1.833,3.903,3.173,5.363c1.339,1.461,2.926,2.574,4.759,3.339c1.833,0.766,3.808,1.148,5.922,1.148
		c1.289,0,2.448-0.075,3.476-0.227c1.026-0.151,1.979-0.388,2.854-0.71c0.877-0.322,1.692-0.73,2.448-1.224
		c0.755-0.493,1.515-1.083,2.281-1.768C555.909,109.715,556.241,109.564,556.564,109.564z"/>
	<path d="M594.121,75.209v4.774h-20.788v14.382h16.83v4.593h-16.83v14.775h20.788v4.774h-26.68V75.209H594.121z"/>
	<path d="M624.729,81.978c-0.182,0.302-0.373,0.528-0.574,0.68s-0.464,0.227-0.785,0.227c-0.343,0-0.74-0.171-1.193-0.514
		c-0.454-0.342-1.027-0.72-1.723-1.133s-1.531-0.79-2.508-1.133c-0.978-0.343-2.16-0.514-3.551-0.514
		c-1.31,0-2.468,0.176-3.475,0.528s-1.848,0.831-2.522,1.436c-0.676,0.604-1.184,1.314-1.526,2.13s-0.514,1.697-0.514,2.644
		c0,1.209,0.297,2.211,0.892,3.007c0.594,0.796,1.38,1.476,2.356,2.039c0.978,0.564,2.085,1.053,3.324,1.466
		c1.238,0.413,2.508,0.841,3.807,1.284c1.3,0.443,2.568,0.941,3.808,1.496c1.238,0.554,2.346,1.254,3.323,2.1
		c0.977,0.846,1.763,1.884,2.357,3.112c0.594,1.229,0.891,2.739,0.891,4.532c0,1.894-0.322,3.671-0.967,5.333
		s-1.586,3.107-2.825,4.336c-1.238,1.229-2.76,2.195-4.562,2.9s-3.853,1.058-6.148,1.058c-2.8,0-5.354-0.509-7.66-1.525
		c-2.307-1.018-4.275-2.393-5.906-4.125l1.691-2.779c0.161-0.222,0.357-0.408,0.59-0.56c0.23-0.15,0.487-0.227,0.771-0.227
		c0.423,0,0.906,0.227,1.45,0.68s1.224,0.952,2.039,1.496c0.816,0.544,1.803,1.042,2.961,1.495c1.158,0.454,2.573,0.681,4.246,0.681
		c1.39,0,2.628-0.191,3.716-0.574s2.01-0.922,2.765-1.617c0.756-0.694,1.334-1.525,1.737-2.492s0.604-2.044,0.604-3.233
		c0-1.309-0.297-2.382-0.892-3.218c-0.594-0.836-1.374-1.536-2.341-2.1c-0.968-0.564-2.07-1.043-3.309-1.436
		c-1.239-0.393-2.509-0.796-3.808-1.209c-1.299-0.412-2.568-0.891-3.807-1.435c-1.239-0.544-2.342-1.249-3.309-2.115
		c-0.968-0.866-1.748-1.949-2.342-3.248c-0.595-1.3-0.892-2.905-0.892-4.819c0-1.531,0.297-3.012,0.892-4.442
		c0.594-1.43,1.455-2.698,2.583-3.807c1.128-1.107,2.523-1.994,4.185-2.659c1.662-0.665,3.57-0.997,5.727-0.997
		c2.417,0,4.622,0.383,6.617,1.148c1.994,0.766,3.736,1.873,5.227,3.323L624.729,81.978z"/>
	<path d="M656.758,81.978c-0.182,0.302-0.373,0.528-0.574,0.68s-0.464,0.227-0.785,0.227c-0.343,0-0.74-0.171-1.193-0.514
		c-0.454-0.342-1.027-0.72-1.723-1.133s-1.531-0.79-2.508-1.133c-0.978-0.343-2.16-0.514-3.551-0.514
		c-1.31,0-2.468,0.176-3.475,0.528s-1.848,0.831-2.522,1.436c-0.676,0.604-1.184,1.314-1.526,2.13s-0.514,1.697-0.514,2.644
		c0,1.209,0.297,2.211,0.892,3.007c0.594,0.796,1.38,1.476,2.356,2.039c0.978,0.564,2.085,1.053,3.324,1.466
		c1.238,0.413,2.508,0.841,3.807,1.284c1.3,0.443,2.568,0.941,3.808,1.496c1.238,0.554,2.346,1.254,3.323,2.1
		c0.977,0.846,1.763,1.884,2.357,3.112c0.594,1.229,0.891,2.739,0.891,4.532c0,1.894-0.322,3.671-0.967,5.333
		s-1.586,3.107-2.825,4.336c-1.238,1.229-2.76,2.195-4.562,2.9s-3.853,1.058-6.148,1.058c-2.8,0-5.354-0.509-7.66-1.525
		c-2.307-1.018-4.275-2.393-5.906-4.125l1.691-2.779c0.161-0.222,0.357-0.408,0.59-0.56c0.23-0.15,0.487-0.227,0.771-0.227
		c0.423,0,0.906,0.227,1.45,0.68s1.224,0.952,2.039,1.496c0.816,0.544,1.803,1.042,2.961,1.495c1.158,0.454,2.573,0.681,4.246,0.681
		c1.39,0,2.628-0.191,3.716-0.574s2.01-0.922,2.765-1.617c0.756-0.694,1.334-1.525,1.737-2.492s0.604-2.044,0.604-3.233
		c0-1.309-0.297-2.382-0.892-3.218c-0.594-0.836-1.374-1.536-2.341-2.1c-0.968-0.564-2.07-1.043-3.309-1.436
		c-1.239-0.393-2.509-0.796-3.808-1.209c-1.299-0.412-2.568-0.891-3.807-1.435c-1.239-0.544-2.342-1.249-3.309-2.115
		c-0.968-0.866-1.748-1.949-2.342-3.248c-0.595-1.3-0.892-2.905-0.892-4.819c0-1.531,0.297-3.012,0.892-4.442
		c0.594-1.43,1.455-2.698,2.583-3.807c1.128-1.107,2.523-1.994,4.185-2.659c1.662-0.665,3.57-0.997,5.727-0.997
		c2.417,0,4.622,0.383,6.617,1.148c1.994,0.766,3.736,1.873,5.227,3.323L656.758,81.978z"/>
	<path d="M664.009,115.185c0-0.524,0.095-1.018,0.287-1.481c0.191-0.463,0.453-0.865,0.785-1.208
		c0.333-0.343,0.73-0.614,1.193-0.816c0.464-0.201,0.957-0.302,1.48-0.302c0.524,0,1.018,0.101,1.48,0.302
		c0.464,0.202,0.866,0.474,1.209,0.816s0.609,0.745,0.801,1.208c0.191,0.464,0.287,0.957,0.287,1.481
		c0,0.543-0.096,1.042-0.287,1.495s-0.458,0.852-0.801,1.193c-0.343,0.343-0.745,0.609-1.209,0.801
		c-0.463,0.191-0.956,0.287-1.48,0.287c-0.523,0-1.017-0.096-1.48-0.287c-0.463-0.191-0.86-0.458-1.193-0.801
		c-0.332-0.342-0.594-0.74-0.785-1.193C664.104,116.227,664.009,115.728,664.009,115.185z"/>
</g>
<g>
	<g>
		<path d="M11.943,221.808v7.89H9.272v-7.89l-7.267-11.944h2.353c0.24,0,0.429,0.06,0.567,0.18c0.138,0.12,0.258,0.268,0.36,0.442
			l4.54,7.71c0.184,0.323,0.339,0.628,0.463,0.913c0.125,0.286,0.238,0.568,0.339,0.845c0.101-0.286,0.212-0.572,0.332-0.858
			c0.12-0.286,0.272-0.586,0.457-0.899l4.526-7.71c0.083-0.147,0.196-0.288,0.339-0.422s0.33-0.2,0.561-0.2h2.381L11.943,221.808z"
			/>
		<path d="M24.815,215.455c1.024,0,1.949,0.171,2.775,0.512c0.826,0.342,1.527,0.826,2.104,1.453
			c0.577,0.628,1.02,1.387,1.329,2.277s0.464,1.885,0.464,2.982c0,1.107-0.155,2.104-0.464,2.99
			c-0.309,0.886-0.752,1.643-1.329,2.27c-0.577,0.628-1.278,1.109-2.104,1.446s-1.751,0.505-2.775,0.505
			c-1.024,0-1.95-0.168-2.775-0.505s-1.529-0.818-2.111-1.446c-0.581-0.627-1.029-1.384-1.342-2.27
			c-0.314-0.887-0.471-1.883-0.471-2.99c0-1.098,0.157-2.092,0.471-2.982c0.313-0.891,0.761-1.649,1.342-2.277
			c0.582-0.627,1.285-1.111,2.111-1.453C22.866,215.626,23.791,215.455,24.815,215.455z M24.815,227.967
			c1.384,0,2.417-0.463,3.1-1.391c0.683-0.928,1.024-2.222,1.024-3.883c0-1.67-0.341-2.971-1.024-3.903
			c-0.683-0.932-1.716-1.397-3.1-1.397c-0.702,0-1.311,0.12-1.827,0.359c-0.517,0.24-0.948,0.587-1.294,1.038
			c-0.346,0.452-0.604,1.009-0.775,1.668c-0.171,0.66-0.256,1.405-0.256,2.235c0,0.831,0.085,1.573,0.256,2.229
			s0.429,1.207,0.775,1.654c0.346,0.447,0.777,0.791,1.294,1.031C23.505,227.848,24.114,227.967,24.815,227.967z"/>
		<path d="M36.664,215.676v8.941c0,1.062,0.244,1.883,0.733,2.464c0.489,0.582,1.227,0.872,2.215,0.872
			c0.72,0,1.398-0.171,2.035-0.512c0.637-0.342,1.223-0.816,1.758-1.426v-10.34h2.464v14.021h-1.467
			c-0.351,0-0.572-0.171-0.665-0.512l-0.194-1.509c-0.609,0.674-1.292,1.216-2.048,1.626c-0.757,0.41-1.624,0.616-2.602,0.616
			c-0.766,0-1.442-0.127-2.028-0.381s-1.078-0.611-1.474-1.072c-0.397-0.462-0.694-1.02-0.893-1.675
			c-0.199-0.655-0.298-1.38-0.298-2.174v-8.941H36.664z"/>
		<path d="M49.923,229.697v-14.021h1.412c0.268,0,0.452,0.051,0.554,0.152s0.17,0.277,0.208,0.526l0.166,2.187
			c0.48-0.978,1.073-1.741,1.779-2.29c0.706-0.549,1.534-0.824,2.484-0.824c0.388,0,0.738,0.044,1.052,0.132
			c0.314,0.088,0.604,0.21,0.872,0.367l-0.318,1.841c-0.064,0.23-0.208,0.346-0.429,0.346c-0.129,0-0.328-0.044-0.595-0.132
			c-0.268-0.087-0.642-0.131-1.122-0.131c-0.858,0-1.576,0.249-2.152,0.747c-0.577,0.498-1.059,1.223-1.447,2.173v8.928H49.923z"/>
		<path d="M66.422,234.444v-18.769h1.467c0.351,0,0.572,0.171,0.665,0.513l0.208,1.661c0.6-0.729,1.285-1.315,2.056-1.758
			c0.77-0.443,1.658-0.665,2.664-0.665c0.803,0,1.532,0.155,2.187,0.464c0.655,0.31,1.213,0.767,1.675,1.37
			c0.461,0.604,0.817,1.354,1.066,2.249c0.249,0.896,0.374,1.925,0.374,3.087c0,1.033-0.138,1.995-0.415,2.886
			s-0.674,1.661-1.19,2.312c-0.517,0.65-1.151,1.163-1.903,1.536c-0.752,0.374-1.599,0.561-2.54,0.561
			c-0.868,0-1.608-0.143-2.222-0.429s-1.156-0.692-1.626-1.218v6.2H66.422z M72.664,217.42c-0.803,0-1.506,0.185-2.111,0.554
			s-1.161,0.891-1.668,1.564v6.782c0.452,0.608,0.948,1.038,1.488,1.287c0.54,0.249,1.142,0.374,1.806,0.374
			c1.301,0,2.302-0.467,3.003-1.398s1.052-2.261,1.052-3.986c0-0.913-0.081-1.697-0.242-2.353s-0.395-1.193-0.699-1.613
			c-0.305-0.419-0.678-0.727-1.121-0.92C73.73,217.517,73.227,217.42,72.664,217.42z"/>
		<path d="M92,229.697h-1.094c-0.24,0-0.434-0.037-0.581-0.11c-0.148-0.074-0.245-0.23-0.291-0.471l-0.277-1.302
			c-0.369,0.333-0.729,0.63-1.08,0.894c-0.351,0.263-0.72,0.484-1.107,0.664c-0.388,0.18-0.801,0.316-1.239,0.408
			c-0.438,0.092-0.925,0.139-1.46,0.139c-0.544,0-1.054-0.077-1.529-0.229c-0.476-0.152-0.888-0.382-1.239-0.688
			c-0.351-0.306-0.63-0.692-0.837-1.159c-0.208-0.468-0.312-1.021-0.312-1.66c0-0.556,0.152-1.09,0.457-1.604
			c0.305-0.515,0.796-0.971,1.474-1.368c0.678-0.398,1.566-0.725,2.665-0.979s2.44-0.382,4.028-0.382v-1.101
			c0-1.096-0.233-1.924-0.699-2.486c-0.466-0.562-1.156-0.843-2.069-0.843c-0.6,0-1.105,0.076-1.516,0.229
			c-0.411,0.152-0.766,0.323-1.066,0.513c-0.3,0.188-0.559,0.359-0.775,0.512s-0.431,0.229-0.644,0.229
			c-0.166,0-0.311-0.044-0.436-0.132c-0.125-0.088-0.224-0.195-0.297-0.325l-0.443-0.789c0.775-0.747,1.61-1.306,2.505-1.675
			c0.895-0.369,1.887-0.554,2.976-0.554c0.784,0,1.481,0.13,2.09,0.388c0.609,0.259,1.121,0.618,1.536,1.08
			c0.415,0.461,0.729,1.02,0.941,1.675c0.212,0.655,0.318,1.375,0.318,2.159V229.697z M85.605,228.188
			c0.434,0,0.831-0.044,1.19-0.132c0.36-0.087,0.699-0.212,1.018-0.373s0.623-0.357,0.914-0.589c0.291-0.23,0.574-0.493,0.851-0.788
			v-2.894c-1.135,0-2.1,0.072-2.893,0.216c-0.793,0.145-1.439,0.332-1.938,0.564c-0.499,0.231-0.86,0.506-1.086,0.821
			c-0.227,0.315-0.339,0.668-0.339,1.058c0,0.371,0.06,0.691,0.18,0.961c0.12,0.27,0.281,0.489,0.484,0.661
			c0.203,0.172,0.443,0.297,0.72,0.376S85.282,228.188,85.605,228.188z"/>
		<path d="M95.737,229.697v-14.021h1.412c0.268,0,0.452,0.051,0.554,0.152s0.17,0.277,0.208,0.526l0.166,2.187
			c0.48-0.978,1.073-1.741,1.779-2.29c0.706-0.549,1.534-0.824,2.484-0.824c0.388,0,0.738,0.044,1.052,0.132
			c0.314,0.088,0.604,0.21,0.872,0.367l-0.318,1.841c-0.064,0.23-0.208,0.346-0.429,0.346c-0.129,0-0.328-0.044-0.595-0.132
			c-0.268-0.087-0.642-0.131-1.122-0.131c-0.858,0-1.576,0.249-2.152,0.747c-0.577,0.498-1.059,1.223-1.447,2.173v8.928H95.737z"/>
		<path d="M111.142,229.919c-1.107,0-1.958-0.31-2.554-0.928s-0.893-1.509-0.893-2.671v-8.582h-1.689
			c-0.147,0-0.272-0.043-0.374-0.131s-0.152-0.224-0.152-0.409v-0.982l2.298-0.29l0.567-4.333c0.019-0.138,0.078-0.251,0.18-0.339
			c0.101-0.088,0.23-0.132,0.387-0.132h1.246v4.831h4.014v1.785h-4.014v8.416c0,0.59,0.143,1.028,0.429,1.314
			s0.655,0.429,1.107,0.429c0.258,0,0.482-0.034,0.671-0.104c0.189-0.069,0.353-0.146,0.491-0.229s0.256-0.159,0.353-0.229
			c0.097-0.068,0.182-0.104,0.256-0.104c0.129,0,0.245,0.079,0.346,0.235l0.72,1.177c-0.424,0.396-0.937,0.708-1.537,0.935
			C112.396,229.806,111.778,229.919,111.142,229.919z"/>
		<path d="M117.218,229.697v-14.021h1.467c0.351,0,0.572,0.171,0.665,0.513l0.194,1.522c0.609-0.674,1.29-1.218,2.042-1.634
			c0.752-0.415,1.622-0.622,2.609-0.622c0.766,0,1.442,0.127,2.028,0.38c0.586,0.254,1.075,0.614,1.467,1.08
			c0.392,0.466,0.689,1.026,0.893,1.682s0.305,1.38,0.305,2.173v8.928h-2.464v-8.928c0-1.061-0.242-1.885-0.727-2.471
			s-1.225-0.879-2.222-0.879c-0.729,0-1.41,0.176-2.042,0.526s-1.216,0.826-1.751,1.426v10.325H117.218z"/>
		<path d="M138.159,215.455c0.839,0,1.614,0.141,2.325,0.422c0.71,0.281,1.324,0.688,1.841,1.218
			c0.517,0.531,0.92,1.186,1.211,1.966c0.291,0.779,0.436,1.668,0.436,2.664c0,0.388-0.042,0.646-0.125,0.775
			s-0.24,0.193-0.471,0.193h-9.329c0.018,0.886,0.138,1.656,0.36,2.312c0.221,0.655,0.526,1.202,0.914,1.641
			c0.387,0.438,0.849,0.766,1.384,0.982s1.135,0.325,1.799,0.325c0.618,0,1.151-0.071,1.599-0.215
			c0.448-0.143,0.833-0.297,1.156-0.463c0.323-0.166,0.593-0.321,0.81-0.464c0.216-0.144,0.403-0.215,0.561-0.215
			c0.203,0,0.36,0.079,0.47,0.235l0.692,0.899c-0.305,0.369-0.669,0.69-1.094,0.962c-0.424,0.272-0.879,0.496-1.363,0.672
			c-0.484,0.175-0.985,0.307-1.501,0.395c-0.517,0.087-1.029,0.131-1.537,0.131c-0.969,0-1.862-0.163-2.678-0.491
			c-0.816-0.327-1.522-0.807-2.118-1.439c-0.595-0.632-1.059-1.414-1.391-2.346s-0.498-2.002-0.498-3.211
			c0-0.979,0.15-1.892,0.45-2.741c0.3-0.849,0.731-1.585,1.294-2.207c0.563-0.623,1.25-1.112,2.062-1.468
			C136.23,215.633,137.144,215.455,138.159,215.455z M138.214,217.268c-1.19,0-2.127,0.344-2.81,1.031
			c-0.683,0.688-1.107,1.641-1.273,2.858h7.626c0-0.572-0.079-1.096-0.235-1.571c-0.157-0.475-0.388-0.886-0.692-1.231
			c-0.305-0.346-0.676-0.613-1.114-0.803C139.278,217.362,138.777,217.268,138.214,217.268z"/>
		<path d="M147.114,229.697v-14.021h1.412c0.268,0,0.452,0.051,0.554,0.152s0.17,0.277,0.208,0.526l0.166,2.187
			c0.48-0.978,1.073-1.741,1.779-2.29c0.706-0.549,1.534-0.824,2.484-0.824c0.388,0,0.738,0.044,1.052,0.132
			c0.314,0.088,0.604,0.21,0.872,0.367l-0.318,1.841c-0.064,0.23-0.208,0.346-0.429,0.346c-0.129,0-0.328-0.044-0.595-0.132
			c-0.268-0.087-0.642-0.131-1.122-0.131c-0.858,0-1.576,0.249-2.152,0.747c-0.577,0.498-1.059,1.223-1.447,2.173v8.928H147.114z"/>
		<path d="M166.907,211.274c0,0.24-0.048,0.464-0.146,0.672c-0.097,0.207-0.226,0.392-0.387,0.554
			c-0.162,0.161-0.349,0.288-0.561,0.38c-0.212,0.093-0.438,0.139-0.678,0.139c-0.24,0-0.464-0.046-0.671-0.139
			c-0.208-0.092-0.393-0.219-0.554-0.38c-0.162-0.162-0.289-0.347-0.38-0.554c-0.093-0.208-0.139-0.432-0.139-0.672
			c0-0.239,0.046-0.468,0.139-0.685c0.092-0.217,0.219-0.406,0.38-0.567c0.161-0.162,0.346-0.289,0.554-0.381
			c0.208-0.093,0.431-0.139,0.671-0.139c0.24,0,0.466,0.046,0.678,0.139c0.212,0.092,0.399,0.219,0.561,0.381
			c0.161,0.161,0.291,0.351,0.387,0.567C166.858,210.807,166.907,211.035,166.907,211.274z M166.353,215.676v14.021h-2.463v-14.021
			H166.353z"/>
		<path d="M170.699,229.697v-14.021h1.467c0.351,0,0.572,0.171,0.665,0.513l0.194,1.522c0.609-0.674,1.29-1.218,2.042-1.634
			c0.752-0.415,1.622-0.622,2.609-0.622c0.766,0,1.442,0.127,2.028,0.38c0.586,0.254,1.075,0.614,1.467,1.08
			c0.392,0.466,0.689,1.026,0.893,1.682s0.305,1.38,0.305,2.173v8.928h-2.464v-8.928c0-1.061-0.242-1.885-0.727-2.471
			s-1.225-0.879-2.222-0.879c-0.729,0-1.41,0.176-2.042,0.526s-1.216,0.826-1.751,1.426v10.325H170.699z"/>
		<path d="M191.433,229.697v-14.021h1.467c0.351,0,0.572,0.171,0.665,0.513l0.194,1.522c0.609-0.674,1.29-1.218,2.042-1.634
			c0.752-0.415,1.622-0.622,2.609-0.622c0.766,0,1.442,0.127,2.028,0.38c0.586,0.254,1.075,0.614,1.467,1.08
			c0.392,0.466,0.689,1.026,0.893,1.682s0.305,1.38,0.305,2.173v8.928h-2.464v-8.928c0-1.061-0.242-1.885-0.727-2.471
			s-1.225-0.879-2.222-0.879c-0.729,0-1.41,0.176-2.042,0.526s-1.216,0.826-1.751,1.426v10.325H191.433z"/>
		<path d="M217.122,229.697h-1.094c-0.24,0-0.434-0.037-0.581-0.11c-0.148-0.074-0.245-0.23-0.291-0.471l-0.277-1.302
			c-0.369,0.333-0.729,0.63-1.08,0.894c-0.351,0.263-0.72,0.484-1.107,0.664c-0.388,0.18-0.801,0.316-1.239,0.408
			c-0.438,0.092-0.925,0.139-1.46,0.139c-0.544,0-1.054-0.077-1.529-0.229c-0.476-0.152-0.888-0.382-1.239-0.688
			c-0.351-0.306-0.63-0.692-0.837-1.159c-0.208-0.468-0.312-1.021-0.312-1.66c0-0.556,0.152-1.09,0.457-1.604
			c0.305-0.515,0.796-0.971,1.474-1.368c0.678-0.398,1.566-0.725,2.665-0.979s2.44-0.382,4.028-0.382v-1.101
			c0-1.096-0.233-1.924-0.699-2.486c-0.466-0.562-1.156-0.843-2.069-0.843c-0.6,0-1.105,0.076-1.516,0.229
			c-0.411,0.152-0.766,0.323-1.066,0.513c-0.3,0.188-0.559,0.359-0.775,0.512s-0.431,0.229-0.644,0.229
			c-0.166,0-0.311-0.044-0.436-0.132c-0.125-0.088-0.224-0.195-0.297-0.325l-0.443-0.789c0.775-0.747,1.61-1.306,2.505-1.675
			c0.895-0.369,1.887-0.554,2.976-0.554c0.784,0,1.481,0.13,2.09,0.388c0.609,0.259,1.121,0.618,1.536,1.08
			c0.415,0.461,0.729,1.02,0.941,1.675c0.212,0.655,0.318,1.375,0.318,2.159V229.697z M210.727,228.188
			c0.434,0,0.831-0.044,1.19-0.132c0.36-0.087,0.699-0.212,1.018-0.373s0.623-0.357,0.914-0.589c0.291-0.23,0.574-0.493,0.851-0.788
			v-2.894c-1.135,0-2.1,0.072-2.893,0.216c-0.793,0.145-1.439,0.332-1.938,0.564c-0.499,0.231-0.86,0.506-1.086,0.821
			c-0.227,0.315-0.339,0.668-0.339,1.058c0,0.371,0.06,0.691,0.18,0.961c0.12,0.27,0.281,0.489,0.484,0.661
			c0.203,0.172,0.443,0.297,0.72,0.376S210.404,228.188,210.727,228.188z"/>
		<path d="M218.672,215.676h2.021c0.194,0,0.355,0.051,0.484,0.152c0.129,0.102,0.222,0.222,0.277,0.36l3.557,9.024
			c0.129,0.332,0.23,0.664,0.305,0.996c0.074,0.332,0.143,0.66,0.208,0.983c0.074-0.323,0.152-0.651,0.235-0.983
			s0.189-0.664,0.318-0.996l3.599-9.024c0.055-0.147,0.145-0.271,0.27-0.367c0.125-0.097,0.279-0.146,0.463-0.146h1.924
			l-5.716,14.021h-2.229L218.672,215.676z"/>
		<path d="M237.911,211.274c0,0.24-0.048,0.464-0.146,0.672c-0.097,0.207-0.226,0.392-0.387,0.554
			c-0.162,0.161-0.349,0.288-0.561,0.38c-0.212,0.093-0.438,0.139-0.678,0.139c-0.24,0-0.464-0.046-0.671-0.139
			c-0.208-0.092-0.393-0.219-0.554-0.38c-0.162-0.162-0.289-0.347-0.38-0.554c-0.093-0.208-0.139-0.432-0.139-0.672
			c0-0.239,0.046-0.468,0.139-0.685c0.092-0.217,0.219-0.406,0.38-0.567c0.161-0.162,0.346-0.289,0.554-0.381
			c0.208-0.093,0.431-0.139,0.671-0.139c0.24,0,0.466,0.046,0.678,0.139c0.212,0.092,0.399,0.219,0.561,0.381
			c0.161,0.161,0.291,0.351,0.387,0.567C237.863,210.807,237.911,211.035,237.911,211.274z M237.357,215.676v14.021h-2.463v-14.021
			H237.357z"/>
		<path d="M246.423,215.44c0.609,0,1.179,0.067,1.709,0.201c0.53,0.134,1.012,0.33,1.446,0.588h3.806v0.914
			c0,0.305-0.194,0.498-0.581,0.581l-1.592,0.222c0.313,0.6,0.471,1.269,0.471,2.007c0,0.683-0.132,1.304-0.395,1.861
			c-0.263,0.559-0.628,1.036-1.094,1.433c-0.466,0.397-1.02,0.701-1.661,0.914c-0.642,0.212-1.345,0.318-2.111,0.318
			c-0.655,0-1.273-0.079-1.855-0.235c-0.295,0.19-0.519,0.396-0.671,0.615c-0.152,0.22-0.229,0.434-0.229,0.644
			c0,0.344,0.134,0.604,0.401,0.78s0.623,0.303,1.066,0.379c0.443,0.076,0.945,0.114,1.508,0.114s1.137,0,1.724,0
			c0.585,0,1.16,0.052,1.723,0.154c0.562,0.104,1.065,0.271,1.508,0.505c0.443,0.233,0.798,0.556,1.066,0.967
			s0.401,0.943,0.401,1.597c0,0.607-0.15,1.196-0.45,1.766s-0.731,1.076-1.294,1.521c-0.563,0.443-1.25,0.799-2.062,1.064
			c-0.812,0.267-1.73,0.399-2.754,0.399s-1.922-0.102-2.692-0.305s-1.409-0.476-1.917-0.817c-0.507-0.342-0.888-0.736-1.142-1.185
			c-0.254-0.448-0.381-0.917-0.381-1.406c0-0.693,0.219-1.282,0.658-1.767c0.438-0.485,1.04-0.871,1.806-1.157
			c-0.397-0.185-0.713-0.431-0.948-0.739s-0.353-0.721-0.353-1.237c0-0.202,0.037-0.411,0.111-0.628s0.187-0.431,0.339-0.643
			s0.339-0.415,0.561-0.608c0.221-0.193,0.479-0.364,0.775-0.512c-0.692-0.387-1.234-0.901-1.626-1.543
			c-0.392-0.641-0.588-1.391-0.588-2.249c0-0.683,0.131-1.304,0.395-1.861c0.263-0.559,0.629-1.033,1.1-1.426
			s1.031-0.694,1.682-0.907C244.936,215.547,245.648,215.44,246.423,215.44z M250.797,230.409c0-0.358-0.097-0.646-0.291-0.861
			c-0.194-0.217-0.457-0.384-0.789-0.501c-0.332-0.118-0.715-0.205-1.148-0.262c-0.434-0.056-0.891-0.084-1.371-0.084
			s-0.969,0-1.467,0c-0.498,0-0.974-0.062-1.425-0.188c-0.526,0.25-0.953,0.555-1.28,0.915c-0.328,0.36-0.492,0.79-0.492,1.289
			c0,0.314,0.081,0.607,0.242,0.881c0.162,0.272,0.409,0.508,0.741,0.707c0.332,0.198,0.75,0.355,1.252,0.471
			s1.096,0.174,1.779,0.174c0.665,0,1.259-0.062,1.786-0.184c0.526-0.123,0.971-0.297,1.335-0.522
			c0.364-0.226,0.644-0.494,0.837-0.805S250.797,230.785,250.797,230.409z M246.423,222.846c0.498,0,0.939-0.069,1.322-0.207
			c0.383-0.139,0.704-0.333,0.962-0.582s0.452-0.547,0.582-0.893c0.129-0.346,0.193-0.727,0.193-1.142
			c0-0.858-0.261-1.541-0.782-2.049c-0.521-0.507-1.28-0.761-2.277-0.761c-0.988,0-1.742,0.254-2.263,0.761
			c-0.521,0.508-0.782,1.19-0.782,2.049c0,0.415,0.066,0.796,0.201,1.142c0.133,0.346,0.33,0.644,0.588,0.893
			s0.577,0.443,0.955,0.582C245.5,222.776,245.934,222.846,246.423,222.846z"/>
		<path d="M266.146,229.697h-1.094c-0.24,0-0.434-0.037-0.581-0.11c-0.148-0.074-0.245-0.23-0.291-0.471l-0.277-1.302
			c-0.369,0.333-0.729,0.63-1.08,0.894c-0.351,0.263-0.72,0.484-1.107,0.664c-0.388,0.18-0.801,0.316-1.239,0.408
			c-0.438,0.092-0.925,0.139-1.46,0.139c-0.544,0-1.054-0.077-1.529-0.229c-0.476-0.152-0.888-0.382-1.239-0.688
			c-0.351-0.306-0.63-0.692-0.837-1.159c-0.208-0.468-0.312-1.021-0.312-1.66c0-0.556,0.152-1.09,0.457-1.604
			c0.305-0.515,0.796-0.971,1.474-1.368c0.678-0.398,1.566-0.725,2.665-0.979s2.44-0.382,4.028-0.382v-1.101
			c0-1.096-0.233-1.924-0.699-2.486c-0.466-0.562-1.156-0.843-2.069-0.843c-0.6,0-1.105,0.076-1.516,0.229
			c-0.411,0.152-0.766,0.323-1.066,0.513c-0.3,0.188-0.559,0.359-0.775,0.512s-0.431,0.229-0.644,0.229
			c-0.166,0-0.311-0.044-0.436-0.132c-0.125-0.088-0.224-0.195-0.297-0.325l-0.443-0.789c0.775-0.747,1.61-1.306,2.505-1.675
			c0.895-0.369,1.887-0.554,2.976-0.554c0.784,0,1.481,0.13,2.09,0.388c0.609,0.259,1.121,0.618,1.536,1.08
			c0.415,0.461,0.729,1.02,0.941,1.675c0.212,0.655,0.318,1.375,0.318,2.159V229.697z M259.751,228.188
			c0.434,0,0.831-0.044,1.19-0.132c0.36-0.087,0.699-0.212,1.018-0.373s0.623-0.357,0.914-0.589c0.291-0.23,0.574-0.493,0.851-0.788
			v-2.894c-1.135,0-2.1,0.072-2.893,0.216c-0.793,0.145-1.439,0.332-1.938,0.564c-0.499,0.231-0.86,0.506-1.086,0.821
			c-0.227,0.315-0.339,0.668-0.339,1.058c0,0.371,0.06,0.691,0.18,0.961c0.12,0.27,0.281,0.489,0.484,0.661
			c0.203,0.172,0.443,0.297,0.72,0.376S259.429,228.188,259.751,228.188z"/>
		<path d="M274.132,229.919c-1.107,0-1.958-0.31-2.554-0.928s-0.893-1.509-0.893-2.671v-8.582h-1.689
			c-0.147,0-0.272-0.043-0.374-0.131s-0.152-0.224-0.152-0.409v-0.982l2.298-0.29l0.567-4.333c0.019-0.138,0.078-0.251,0.18-0.339
			c0.101-0.088,0.23-0.132,0.387-0.132h1.246v4.831h4.014v1.785h-4.014v8.416c0,0.59,0.143,1.028,0.429,1.314
			s0.655,0.429,1.107,0.429c0.258,0,0.482-0.034,0.671-0.104c0.189-0.069,0.353-0.146,0.491-0.229s0.256-0.159,0.353-0.229
			c0.097-0.068,0.182-0.104,0.256-0.104c0.129,0,0.245,0.079,0.346,0.235l0.72,1.177c-0.424,0.396-0.937,0.708-1.537,0.935
			C275.387,229.806,274.769,229.919,274.132,229.919z"/>
		<path d="M283.502,211.274c0,0.24-0.048,0.464-0.146,0.672c-0.097,0.207-0.226,0.392-0.387,0.554
			c-0.162,0.161-0.349,0.288-0.561,0.38c-0.212,0.093-0.438,0.139-0.678,0.139c-0.24,0-0.464-0.046-0.671-0.139
			c-0.208-0.092-0.393-0.219-0.554-0.38c-0.162-0.162-0.289-0.347-0.38-0.554c-0.093-0.208-0.139-0.432-0.139-0.672
			c0-0.239,0.046-0.468,0.139-0.685c0.092-0.217,0.219-0.406,0.38-0.567c0.161-0.162,0.346-0.289,0.554-0.381
			c0.208-0.093,0.431-0.139,0.671-0.139c0.24,0,0.466,0.046,0.678,0.139c0.212,0.092,0.399,0.219,0.561,0.381
			c0.161,0.161,0.291,0.351,0.387,0.567C283.454,210.807,283.502,211.035,283.502,211.274z M282.949,215.676v14.021h-2.463v-14.021
			H282.949z"/>
		<path d="M287.295,229.697v-14.021h1.467c0.351,0,0.572,0.171,0.665,0.513l0.194,1.522c0.609-0.674,1.29-1.218,2.042-1.634
			c0.752-0.415,1.622-0.622,2.609-0.622c0.766,0,1.442,0.127,2.028,0.38c0.586,0.254,1.075,0.614,1.467,1.08
			c0.392,0.466,0.689,1.026,0.893,1.682s0.305,1.38,0.305,2.173v8.928h-2.464v-8.928c0-1.061-0.242-1.885-0.727-2.471
			s-1.225-0.879-2.222-0.879c-0.729,0-1.41,0.176-2.042,0.526s-1.216,0.826-1.751,1.426v10.325H287.295z"/>
		<path d="M307.406,215.44c0.609,0,1.179,0.067,1.709,0.201c0.53,0.134,1.012,0.33,1.446,0.588h3.806v0.914
			c0,0.305-0.194,0.498-0.581,0.581l-1.592,0.222c0.313,0.6,0.471,1.269,0.471,2.007c0,0.683-0.132,1.304-0.395,1.861
			c-0.263,0.559-0.628,1.036-1.094,1.433c-0.466,0.397-1.02,0.701-1.661,0.914c-0.642,0.212-1.345,0.318-2.111,0.318
			c-0.655,0-1.273-0.079-1.855-0.235c-0.295,0.19-0.519,0.396-0.671,0.615c-0.152,0.22-0.229,0.434-0.229,0.644
			c0,0.344,0.134,0.604,0.401,0.78s0.623,0.303,1.066,0.379c0.443,0.076,0.945,0.114,1.508,0.114s1.137,0,1.724,0
			c0.585,0,1.16,0.052,1.723,0.154c0.562,0.104,1.065,0.271,1.508,0.505c0.443,0.233,0.798,0.556,1.066,0.967
			s0.401,0.943,0.401,1.597c0,0.607-0.15,1.196-0.45,1.766s-0.731,1.076-1.294,1.521c-0.563,0.443-1.25,0.799-2.062,1.064
			c-0.812,0.267-1.73,0.399-2.754,0.399s-1.922-0.102-2.692-0.305s-1.409-0.476-1.917-0.817c-0.507-0.342-0.888-0.736-1.142-1.185
			c-0.254-0.448-0.381-0.917-0.381-1.406c0-0.693,0.219-1.282,0.658-1.767c0.438-0.485,1.04-0.871,1.806-1.157
			c-0.397-0.185-0.713-0.431-0.948-0.739s-0.353-0.721-0.353-1.237c0-0.202,0.037-0.411,0.111-0.628s0.187-0.431,0.339-0.643
			s0.339-0.415,0.561-0.608c0.221-0.193,0.479-0.364,0.775-0.512c-0.692-0.387-1.234-0.901-1.626-1.543
			c-0.392-0.641-0.588-1.391-0.588-2.249c0-0.683,0.131-1.304,0.395-1.861c0.263-0.559,0.629-1.033,1.1-1.426
			s1.031-0.694,1.682-0.907C305.918,215.547,306.631,215.44,307.406,215.44z M311.78,230.409c0-0.358-0.097-0.646-0.291-0.861
			c-0.194-0.217-0.457-0.384-0.789-0.501c-0.332-0.118-0.715-0.205-1.148-0.262c-0.434-0.056-0.891-0.084-1.371-0.084
			s-0.969,0-1.467,0c-0.498,0-0.974-0.062-1.425-0.188c-0.526,0.25-0.953,0.555-1.28,0.915c-0.328,0.36-0.492,0.79-0.492,1.289
			c0,0.314,0.081,0.607,0.242,0.881c0.162,0.272,0.409,0.508,0.741,0.707c0.332,0.198,0.75,0.355,1.252,0.471
			s1.096,0.174,1.779,0.174c0.665,0,1.259-0.062,1.786-0.184c0.526-0.123,0.971-0.297,1.335-0.522
			c0.364-0.226,0.644-0.494,0.837-0.805S311.78,230.785,311.78,230.409z M307.406,222.846c0.498,0,0.939-0.069,1.322-0.207
			c0.383-0.139,0.704-0.333,0.962-0.582s0.452-0.547,0.582-0.893c0.129-0.346,0.193-0.727,0.193-1.142
			c0-0.858-0.261-1.541-0.782-2.049c-0.521-0.507-1.28-0.761-2.277-0.761c-0.988,0-1.742,0.254-2.263,0.761
			c-0.521,0.508-0.782,1.19-0.782,2.049c0,0.415,0.066,0.796,0.201,1.142c0.133,0.346,0.33,0.644,0.588,0.893
			s0.577,0.443,0.955,0.582C306.483,222.776,306.917,222.846,307.406,222.846z"/>
		<path d="M326.423,229.919c-1.107,0-1.958-0.31-2.554-0.928s-0.893-1.509-0.893-2.671v-8.582h-1.689
			c-0.147,0-0.272-0.043-0.374-0.131s-0.152-0.224-0.152-0.409v-0.982l2.298-0.29l0.567-4.333c0.019-0.138,0.078-0.251,0.18-0.339
			c0.101-0.088,0.23-0.132,0.387-0.132h1.246v4.831h4.014v1.785h-4.014v8.416c0,0.59,0.143,1.028,0.429,1.314
			s0.655,0.429,1.107,0.429c0.258,0,0.482-0.034,0.671-0.104c0.189-0.069,0.353-0.146,0.491-0.229s0.256-0.159,0.353-0.229
			c0.097-0.068,0.182-0.104,0.256-0.104c0.129,0,0.245,0.079,0.346,0.235l0.72,1.177c-0.424,0.396-0.937,0.708-1.537,0.935
			C327.678,229.806,327.06,229.919,326.423,229.919z"/>
		<path d="M332.5,229.697V209.31h2.463v8.249c0.6-0.637,1.264-1.146,1.993-1.529s1.569-0.574,2.519-0.574
			c0.766,0,1.442,0.127,2.028,0.38c0.586,0.254,1.075,0.614,1.468,1.08c0.392,0.466,0.689,1.026,0.893,1.682s0.305,1.38,0.305,2.173
			v8.928h-2.465v-8.928c0-1.061-0.242-1.885-0.726-2.471c-0.484-0.586-1.225-0.879-2.222-0.879c-0.729,0-1.41,0.176-2.042,0.526
			s-1.216,0.826-1.751,1.426v10.325H332.5z"/>
		<path d="M353.441,215.455c0.839,0,1.613,0.141,2.324,0.422s1.324,0.688,1.842,1.218c0.516,0.531,0.92,1.186,1.211,1.966
			c0.291,0.779,0.436,1.668,0.436,2.664c0,0.388-0.041,0.646-0.125,0.775c-0.082,0.129-0.24,0.193-0.471,0.193h-9.328
			c0.018,0.886,0.139,1.656,0.359,2.312c0.222,0.655,0.526,1.202,0.914,1.641c0.387,0.438,0.849,0.766,1.384,0.982
			s1.136,0.325,1.8,0.325c0.617,0,1.15-0.071,1.598-0.215c0.448-0.143,0.834-0.297,1.156-0.463c0.323-0.166,0.593-0.321,0.811-0.464
			c0.216-0.144,0.402-0.215,0.561-0.215c0.202,0,0.359,0.079,0.47,0.235l0.692,0.899c-0.305,0.369-0.67,0.69-1.094,0.962
			c-0.424,0.272-0.879,0.496-1.363,0.672c-0.484,0.175-0.984,0.307-1.502,0.395c-0.517,0.087-1.029,0.131-1.536,0.131
			c-0.969,0-1.862-0.163-2.679-0.491c-0.816-0.327-1.521-0.807-2.117-1.439c-0.596-0.632-1.059-1.414-1.391-2.346
			s-0.498-2.002-0.498-3.211c0-0.979,0.149-1.892,0.449-2.741c0.3-0.849,0.73-1.585,1.294-2.207
			c0.563-0.623,1.251-1.112,2.062-1.468C351.512,215.633,352.426,215.455,353.441,215.455z M353.496,217.268
			c-1.19,0-2.127,0.344-2.81,1.031s-1.107,1.641-1.273,2.858h7.626c0-0.572-0.078-1.096-0.234-1.571
			c-0.158-0.475-0.389-0.886-0.692-1.231c-0.305-0.346-0.677-0.613-1.114-0.803C354.56,217.362,354.059,217.268,353.496,217.268z"/>
		<path d="M382.104,225.601c0.147,0,0.281,0.06,0.401,0.18l1.052,1.148c-0.812,0.941-1.797,1.675-2.955,2.201
			c-1.157,0.525-2.554,0.789-4.187,0.789c-1.431,0-2.727-0.247-3.89-0.741c-1.162-0.493-2.154-1.186-2.976-2.076
			c-0.821-0.89-1.458-1.958-1.91-3.204c-0.452-1.245-0.678-2.615-0.678-4.11s0.242-2.865,0.727-4.111
			c0.484-1.245,1.164-2.315,2.041-3.211c0.877-0.895,1.927-1.589,3.149-2.083c1.223-0.493,2.572-0.74,4.048-0.74
			c1.458,0,2.716,0.226,3.772,0.678c1.056,0.452,1.995,1.066,2.816,1.841l-0.872,1.232c-0.064,0.092-0.139,0.168-0.222,0.229
			c-0.083,0.06-0.203,0.09-0.359,0.09c-0.12,0-0.247-0.044-0.381-0.132s-0.293-0.195-0.478-0.325
			c-0.185-0.129-0.401-0.268-0.65-0.415s-0.545-0.286-0.886-0.415c-0.342-0.13-0.738-0.237-1.19-0.325s-0.974-0.132-1.564-0.132
			c-1.061,0-2.032,0.183-2.913,0.547c-0.882,0.364-1.641,0.884-2.277,1.557c-0.637,0.674-1.133,1.495-1.487,2.464
			c-0.355,0.969-0.533,2.054-0.533,3.253c0,1.236,0.178,2.339,0.533,3.308c0.354,0.969,0.839,1.788,1.453,2.457
			c0.613,0.669,1.34,1.179,2.18,1.529s1.744,0.526,2.713,0.526c0.591,0,1.121-0.035,1.592-0.104
			c0.471-0.069,0.906-0.178,1.308-0.326c0.401-0.147,0.775-0.334,1.121-0.561c0.347-0.226,0.694-0.495,1.046-0.81
			C381.805,225.67,381.957,225.601,382.104,225.601z"/>
		<path d="M396.998,229.697h-1.093c-0.24,0-0.435-0.037-0.582-0.11c-0.147-0.074-0.244-0.23-0.29-0.471l-0.277-1.302
			c-0.369,0.333-0.729,0.63-1.079,0.894c-0.352,0.263-0.72,0.484-1.107,0.664s-0.801,0.316-1.239,0.408s-0.925,0.139-1.46,0.139
			c-0.545,0-1.055-0.077-1.529-0.229c-0.476-0.152-0.889-0.382-1.239-0.688s-0.63-0.692-0.837-1.159
			c-0.208-0.468-0.312-1.021-0.312-1.66c0-0.556,0.152-1.09,0.457-1.604c0.304-0.515,0.796-0.971,1.474-1.368
			c0.679-0.398,1.566-0.725,2.664-0.979c1.099-0.255,2.441-0.382,4.028-0.382v-1.101c0-1.096-0.233-1.924-0.699-2.486
			c-0.466-0.562-1.155-0.843-2.069-0.843c-0.6,0-1.104,0.076-1.516,0.229c-0.41,0.152-0.766,0.323-1.065,0.513
			c-0.3,0.188-0.559,0.359-0.775,0.512s-0.432,0.229-0.644,0.229c-0.166,0-0.312-0.044-0.436-0.132
			c-0.125-0.088-0.224-0.195-0.298-0.325l-0.443-0.789c0.775-0.747,1.61-1.306,2.506-1.675c0.895-0.369,1.887-0.554,2.976-0.554
			c0.784,0,1.481,0.13,2.09,0.388c0.609,0.259,1.121,0.618,1.536,1.08c0.416,0.461,0.729,1.02,0.941,1.675
			c0.213,0.655,0.318,1.375,0.318,2.159V229.697z M390.604,228.188c0.434,0,0.831-0.044,1.19-0.132
			c0.36-0.087,0.699-0.212,1.018-0.373s0.623-0.357,0.913-0.589c0.291-0.23,0.574-0.493,0.852-0.788v-2.894
			c-1.135,0-2.1,0.072-2.893,0.216c-0.794,0.145-1.439,0.332-1.938,0.564c-0.498,0.231-0.86,0.506-1.086,0.821
			c-0.227,0.315-0.339,0.668-0.339,1.058c0,0.371,0.06,0.691,0.18,0.961s0.281,0.489,0.484,0.661s0.442,0.297,0.72,0.376
			C389.98,228.149,390.28,228.188,390.604,228.188z"/>
		<path d="M400.734,229.697v-14.021h1.468c0.351,0,0.571,0.171,0.664,0.513l0.193,1.522c0.609-0.674,1.29-1.218,2.042-1.634
			c0.752-0.415,1.621-0.622,2.609-0.622c0.766,0,1.441,0.127,2.027,0.38c0.586,0.254,1.075,0.614,1.467,1.08
			c0.393,0.466,0.69,1.026,0.894,1.682c0.202,0.655,0.304,1.38,0.304,2.173v8.928h-2.463v-8.928c0-1.061-0.242-1.885-0.728-2.471
			c-0.484-0.586-1.225-0.879-2.221-0.879c-0.729,0-1.41,0.176-2.042,0.526s-1.216,0.826-1.751,1.426v10.325H400.734z"/>
		<path d="M426.424,229.697h-1.093c-0.24,0-0.435-0.037-0.582-0.11c-0.147-0.074-0.244-0.23-0.29-0.471l-0.277-1.302
			c-0.369,0.333-0.729,0.63-1.079,0.894c-0.352,0.263-0.72,0.484-1.107,0.664s-0.801,0.316-1.239,0.408s-0.925,0.139-1.46,0.139
			c-0.545,0-1.055-0.077-1.529-0.229c-0.476-0.152-0.889-0.382-1.239-0.688s-0.63-0.692-0.837-1.159
			c-0.208-0.468-0.312-1.021-0.312-1.66c0-0.556,0.152-1.09,0.457-1.604c0.304-0.515,0.796-0.971,1.474-1.368
			c0.679-0.398,1.566-0.725,2.664-0.979c1.099-0.255,2.441-0.382,4.028-0.382v-1.101c0-1.096-0.233-1.924-0.699-2.486
			c-0.466-0.562-1.155-0.843-2.069-0.843c-0.6,0-1.104,0.076-1.516,0.229c-0.41,0.152-0.766,0.323-1.065,0.513
			c-0.3,0.188-0.559,0.359-0.775,0.512s-0.432,0.229-0.644,0.229c-0.166,0-0.312-0.044-0.436-0.132
			c-0.125-0.088-0.224-0.195-0.298-0.325l-0.443-0.789c0.775-0.747,1.61-1.306,2.506-1.675c0.895-0.369,1.887-0.554,2.976-0.554
			c0.784,0,1.481,0.13,2.09,0.388c0.609,0.259,1.121,0.618,1.536,1.08c0.416,0.461,0.729,1.02,0.941,1.675
			c0.213,0.655,0.318,1.375,0.318,2.159V229.697z M420.029,228.188c0.434,0,0.831-0.044,1.19-0.132
			c0.36-0.087,0.699-0.212,1.018-0.373s0.623-0.357,0.913-0.589c0.291-0.23,0.574-0.493,0.852-0.788v-2.894
			c-1.135,0-2.1,0.072-2.893,0.216c-0.794,0.145-1.439,0.332-1.938,0.564c-0.498,0.231-0.86,0.506-1.086,0.821
			c-0.227,0.315-0.339,0.668-0.339,1.058c0,0.371,0.06,0.691,0.18,0.961s0.281,0.489,0.484,0.661s0.442,0.297,0.72,0.376
			C419.406,228.149,419.706,228.188,420.029,228.188z"/>
		<path d="M440.029,229.697c-0.351,0-0.572-0.171-0.664-0.512l-0.222-1.703c-0.601,0.729-1.285,1.313-2.056,1.751
			c-0.771,0.438-1.654,0.657-2.65,0.657c-0.803,0-1.532-0.154-2.188-0.463c-0.655-0.31-1.213-0.764-1.674-1.363
			c-0.462-0.601-0.817-1.348-1.066-2.243c-0.249-0.895-0.374-1.924-0.374-3.086c0-1.033,0.139-1.995,0.416-2.886
			c0.276-0.891,0.676-1.663,1.197-2.318c0.521-0.655,1.155-1.17,1.903-1.544c0.747-0.373,1.596-0.561,2.546-0.561
			c0.858,0,1.592,0.146,2.201,0.437c0.609,0.29,1.153,0.699,1.633,1.225v-7.778h2.464v20.388H440.029z M435.254,227.897
			c0.803,0,1.507-0.184,2.111-0.553c0.604-0.369,1.16-0.891,1.667-1.564v-6.782c-0.452-0.609-0.947-1.036-1.487-1.28
			s-1.138-0.367-1.793-0.367c-1.31,0-2.315,0.467-3.017,1.398c-0.702,0.932-1.053,2.261-1.053,3.986
			c0,0.913,0.079,1.695,0.235,2.346c0.157,0.65,0.388,1.186,0.692,1.605s0.678,0.727,1.121,0.921
			C434.175,227.801,434.682,227.897,435.254,227.897z"/>
		<path d="M448.93,211.274c0,0.24-0.049,0.464-0.146,0.672c-0.097,0.207-0.227,0.392-0.388,0.554
			c-0.162,0.161-0.349,0.288-0.561,0.38c-0.213,0.093-0.438,0.139-0.679,0.139c-0.239,0-0.463-0.046-0.671-0.139
			c-0.208-0.092-0.393-0.219-0.554-0.38c-0.161-0.162-0.288-0.347-0.381-0.554c-0.092-0.208-0.138-0.432-0.138-0.672
			c0-0.239,0.046-0.468,0.138-0.685c0.093-0.217,0.22-0.406,0.381-0.567c0.161-0.162,0.346-0.289,0.554-0.381
			c0.208-0.093,0.432-0.139,0.671-0.139c0.24,0,0.466,0.046,0.679,0.139c0.212,0.092,0.398,0.219,0.561,0.381
			c0.161,0.161,0.291,0.351,0.388,0.567S448.93,211.035,448.93,211.274z M448.376,215.676v14.021h-2.464v-14.021H448.376z"/>
		<path d="M463.02,229.697h-1.093c-0.24,0-0.435-0.037-0.582-0.11c-0.147-0.074-0.244-0.23-0.29-0.471l-0.277-1.302
			c-0.369,0.333-0.729,0.63-1.079,0.894c-0.352,0.263-0.72,0.484-1.107,0.664s-0.801,0.316-1.239,0.408s-0.925,0.139-1.46,0.139
			c-0.545,0-1.055-0.077-1.529-0.229c-0.476-0.152-0.889-0.382-1.239-0.688s-0.63-0.692-0.837-1.159
			c-0.208-0.468-0.312-1.021-0.312-1.66c0-0.556,0.152-1.09,0.457-1.604c0.304-0.515,0.796-0.971,1.474-1.368
			c0.679-0.398,1.566-0.725,2.664-0.979c1.099-0.255,2.441-0.382,4.028-0.382v-1.101c0-1.096-0.233-1.924-0.699-2.486
			c-0.466-0.562-1.155-0.843-2.069-0.843c-0.6,0-1.104,0.076-1.516,0.229c-0.41,0.152-0.766,0.323-1.065,0.513
			c-0.3,0.188-0.559,0.359-0.775,0.512s-0.432,0.229-0.644,0.229c-0.166,0-0.312-0.044-0.436-0.132
			c-0.125-0.088-0.224-0.195-0.298-0.325l-0.443-0.789c0.775-0.747,1.61-1.306,2.506-1.675c0.895-0.369,1.887-0.554,2.976-0.554
			c0.784,0,1.481,0.13,2.09,0.388c0.609,0.259,1.121,0.618,1.536,1.08c0.416,0.461,0.729,1.02,0.941,1.675
			c0.213,0.655,0.318,1.375,0.318,2.159V229.697z M456.625,228.188c0.434,0,0.831-0.044,1.19-0.132
			c0.36-0.087,0.699-0.212,1.018-0.373s0.623-0.357,0.913-0.589c0.291-0.23,0.574-0.493,0.852-0.788v-2.894
			c-1.135,0-2.1,0.072-2.893,0.216c-0.794,0.145-1.439,0.332-1.938,0.564c-0.498,0.231-0.86,0.506-1.086,0.821
			c-0.227,0.315-0.339,0.668-0.339,1.058c0,0.371,0.06,0.691,0.18,0.961s0.281,0.489,0.484,0.661s0.442,0.297,0.72,0.376
			C456.002,228.149,456.302,228.188,456.625,228.188z"/>
		<path d="M466.756,229.697v-14.021h1.468c0.351,0,0.571,0.171,0.664,0.513l0.193,1.522c0.609-0.674,1.29-1.218,2.042-1.634
			c0.752-0.415,1.621-0.622,2.609-0.622c0.766,0,1.441,0.127,2.027,0.38c0.586,0.254,1.075,0.614,1.467,1.08
			c0.393,0.466,0.69,1.026,0.894,1.682c0.202,0.655,0.304,1.38,0.304,2.173v8.928h-2.463v-8.928c0-1.061-0.242-1.885-0.728-2.471
			c-0.484-0.586-1.225-0.879-2.221-0.879c-0.729,0-1.41,0.176-2.042,0.526s-1.216,0.826-1.751,1.426v10.325H466.756z"/>
		<path d="M490.825,222.278v7.419h-2.671v-19.834h5.854c1.255,0,2.346,0.145,3.273,0.436s1.695,0.704,2.305,1.239
			c0.608,0.535,1.063,1.181,1.363,1.938s0.45,1.601,0.45,2.533c0,0.923-0.162,1.767-0.485,2.532
			c-0.322,0.767-0.796,1.426-1.418,1.979c-0.623,0.554-1.396,0.985-2.318,1.294c-0.923,0.31-1.979,0.464-3.17,0.464H490.825z
			 M490.825,220.146h3.184c0.766,0,1.441-0.101,2.027-0.304s1.077-0.487,1.475-0.852c0.396-0.364,0.696-0.801,0.899-1.308
			c0.203-0.508,0.305-1.066,0.305-1.675c0-1.265-0.39-2.252-1.17-2.963c-0.779-0.71-1.958-1.065-3.536-1.065h-3.184V220.146z"/>
		<path d="M506.535,215.676v8.941c0,1.062,0.244,1.883,0.733,2.464c0.489,0.582,1.228,0.872,2.215,0.872
			c0.72,0,1.397-0.171,2.034-0.512c0.637-0.342,1.223-0.816,1.758-1.426v-10.34h2.464v14.021h-1.467
			c-0.351,0-0.572-0.171-0.664-0.512l-0.194-1.509c-0.608,0.674-1.292,1.216-2.049,1.626c-0.756,0.41-1.624,0.616-2.602,0.616
			c-0.766,0-1.442-0.127-2.027-0.381c-0.587-0.254-1.078-0.611-1.475-1.072c-0.396-0.462-0.694-1.02-0.893-1.675
			s-0.298-1.38-0.298-2.174v-8.941H506.535z"/>
		<path d="M519.878,229.697V209.31h2.478v8.388c0.582-0.674,1.248-1.216,2-1.627c0.752-0.41,1.613-0.615,2.582-0.615
			c0.812,0,1.545,0.152,2.2,0.456c0.655,0.305,1.214,0.76,1.675,1.363c0.462,0.604,0.817,1.353,1.066,2.243
			c0.249,0.89,0.373,1.917,0.373,3.079c0,1.033-0.138,1.995-0.415,2.886c-0.276,0.891-0.676,1.661-1.197,2.312
			s-1.158,1.163-1.91,1.536c-0.752,0.374-1.599,0.561-2.54,0.561c-0.904,0-1.672-0.175-2.304-0.525
			c-0.633-0.351-1.184-0.84-1.654-1.468l-0.125,1.273c-0.073,0.352-0.286,0.526-0.637,0.526H519.878z M526.135,217.42
			c-0.803,0-1.507,0.185-2.111,0.554s-1.16,0.891-1.668,1.564v6.782c0.443,0.608,0.935,1.038,1.475,1.287s1.142,0.374,1.806,0.374
			c1.311,0,2.316-0.467,3.018-1.398s1.052-2.261,1.052-3.986c0-0.913-0.08-1.697-0.242-2.353c-0.161-0.655-0.395-1.193-0.698-1.613
			c-0.305-0.419-0.679-0.727-1.121-0.92C527.2,217.517,526.697,217.42,526.135,217.42z"/>
		<path d="M538.01,209.31v20.388h-2.464V209.31H538.01z"/>
		<path d="M545.65,211.274c0,0.24-0.049,0.464-0.146,0.672c-0.097,0.207-0.227,0.392-0.388,0.554
			c-0.162,0.161-0.349,0.288-0.561,0.38c-0.213,0.093-0.438,0.139-0.679,0.139c-0.239,0-0.463-0.046-0.671-0.139
			c-0.208-0.092-0.393-0.219-0.554-0.38c-0.161-0.162-0.288-0.347-0.381-0.554c-0.092-0.208-0.138-0.432-0.138-0.672
			c0-0.239,0.046-0.468,0.138-0.685c0.093-0.217,0.22-0.406,0.381-0.567c0.161-0.162,0.346-0.289,0.554-0.381
			c0.208-0.093,0.432-0.139,0.671-0.139c0.24,0,0.466,0.046,0.679,0.139c0.212,0.092,0.398,0.219,0.561,0.381
			c0.161,0.161,0.291,0.351,0.388,0.567S545.65,211.035,545.65,211.274z M545.097,215.676v14.021h-2.464v-14.021H545.097z"/>
		<path d="M559.007,218.168c-0.074,0.102-0.147,0.18-0.222,0.235c-0.073,0.055-0.18,0.083-0.318,0.083
			c-0.138,0-0.288-0.058-0.449-0.174c-0.162-0.115-0.367-0.242-0.616-0.38c-0.249-0.139-0.552-0.266-0.906-0.381
			c-0.355-0.115-0.792-0.173-1.309-0.173c-0.683,0-1.287,0.122-1.812,0.366c-0.526,0.245-0.967,0.598-1.322,1.06
			c-0.355,0.461-0.623,1.02-0.803,1.675s-0.27,1.389-0.27,2.2c0,0.85,0.097,1.604,0.29,2.263c0.194,0.66,0.466,1.214,0.816,1.661
			c0.351,0.448,0.777,0.789,1.28,1.024s1.068,0.354,1.696,0.354c0.6,0,1.093-0.072,1.48-0.215c0.388-0.144,0.711-0.303,0.969-0.478
			c0.259-0.176,0.471-0.335,0.637-0.478c0.166-0.144,0.332-0.215,0.499-0.215c0.212,0,0.368,0.079,0.47,0.235l0.692,0.899
			c-0.608,0.748-1.37,1.295-2.283,1.641c-0.914,0.346-1.878,0.519-2.894,0.519c-0.876,0-1.69-0.161-2.442-0.484
			c-0.753-0.322-1.405-0.791-1.959-1.404c-0.554-0.614-0.989-1.368-1.308-2.264c-0.318-0.895-0.478-1.914-0.478-3.059
			c0-1.043,0.146-2.007,0.436-2.893c0.291-0.886,0.715-1.649,1.273-2.291c0.559-0.641,1.248-1.142,2.069-1.502
			c0.821-0.359,1.763-0.539,2.824-0.539c0.978,0,1.845,0.159,2.602,0.478s1.426,0.768,2.007,1.35L559.007,218.168z"/>
		<path d="M578.197,223.227c0.097,0.244,0.191,0.491,0.283,0.74c0.093-0.258,0.189-0.505,0.291-0.74s0.217-0.473,0.346-0.713
			l6.713-12.194c0.12-0.212,0.244-0.341,0.374-0.388c0.129-0.046,0.313-0.068,0.554-0.068h1.979v19.834h-2.354v-14.575
			c0-0.193,0.005-0.401,0.014-0.622c0.01-0.222,0.023-0.448,0.042-0.679l-6.796,12.401c-0.231,0.416-0.554,0.623-0.969,0.623h-0.388
			c-0.415,0-0.738-0.207-0.969-0.623l-6.948-12.442c0.027,0.239,0.048,0.475,0.062,0.706c0.015,0.23,0.021,0.442,0.021,0.636v14.575
			H568.1v-19.834h1.979c0.24,0,0.424,0.022,0.554,0.068c0.129,0.047,0.254,0.176,0.374,0.388l6.851,12.208
			C577.987,222.749,578.1,222.982,578.197,223.227z"/>
		<path d="M603.478,229.697h-1.093c-0.24,0-0.435-0.037-0.582-0.11c-0.147-0.074-0.244-0.23-0.29-0.471l-0.277-1.302
			c-0.369,0.333-0.729,0.63-1.079,0.894c-0.352,0.263-0.72,0.484-1.107,0.664s-0.801,0.316-1.239,0.408s-0.925,0.139-1.46,0.139
			c-0.545,0-1.055-0.077-1.529-0.229c-0.476-0.152-0.889-0.382-1.239-0.688s-0.63-0.692-0.837-1.159
			c-0.208-0.468-0.312-1.021-0.312-1.66c0-0.556,0.152-1.09,0.457-1.604c0.304-0.515,0.796-0.971,1.474-1.368
			c0.679-0.398,1.566-0.725,2.664-0.979c1.099-0.255,2.441-0.382,4.028-0.382v-1.101c0-1.096-0.233-1.924-0.699-2.486
			c-0.466-0.562-1.155-0.843-2.069-0.843c-0.6,0-1.104,0.076-1.516,0.229c-0.41,0.152-0.766,0.323-1.065,0.513
			c-0.3,0.188-0.559,0.359-0.775,0.512s-0.432,0.229-0.644,0.229c-0.166,0-0.312-0.044-0.436-0.132
			c-0.125-0.088-0.224-0.195-0.298-0.325l-0.443-0.789c0.775-0.747,1.61-1.306,2.506-1.675c0.895-0.369,1.887-0.554,2.976-0.554
			c0.784,0,1.481,0.13,2.09,0.388c0.609,0.259,1.121,0.618,1.536,1.08c0.416,0.461,0.729,1.02,0.941,1.675
			c0.213,0.655,0.318,1.375,0.318,2.159V229.697z M597.083,228.188c0.434,0,0.831-0.044,1.19-0.132
			c0.36-0.087,0.699-0.212,1.018-0.373s0.623-0.357,0.913-0.589c0.291-0.23,0.574-0.493,0.852-0.788v-2.894
			c-1.135,0-2.1,0.072-2.893,0.216c-0.794,0.145-1.439,0.332-1.938,0.564c-0.498,0.231-0.86,0.506-1.086,0.821
			c-0.227,0.315-0.339,0.668-0.339,1.058c0,0.371,0.06,0.691,0.18,0.961s0.281,0.489,0.484,0.661s0.442,0.297,0.72,0.376
			C596.46,228.149,596.76,228.188,597.083,228.188z"/>
		<path d="M607.214,229.697v-14.021h1.412c0.268,0,0.452,0.051,0.554,0.152s0.171,0.277,0.208,0.526l0.166,2.187
			c0.479-0.978,1.072-1.741,1.778-2.29s1.534-0.824,2.484-0.824c0.388,0,0.738,0.044,1.052,0.132s0.604,0.21,0.872,0.367
			l-0.318,1.841c-0.064,0.23-0.208,0.346-0.429,0.346c-0.13,0-0.328-0.044-0.596-0.132c-0.268-0.087-0.642-0.131-1.121-0.131
			c-0.858,0-1.575,0.249-2.152,0.747c-0.576,0.498-1.059,1.223-1.446,2.173v8.928H607.214z"/>
		<path d="M620.931,209.31v12h0.637c0.185,0,0.337-0.025,0.457-0.076s0.254-0.154,0.401-0.312l4.43-4.747
			c0.138-0.147,0.276-0.268,0.415-0.36c0.138-0.092,0.322-0.139,0.554-0.139h2.242l-5.163,5.495
			c-0.129,0.157-0.256,0.296-0.381,0.415c-0.124,0.12-0.265,0.227-0.422,0.318c0.166,0.111,0.316,0.238,0.45,0.381
			c0.134,0.144,0.261,0.307,0.38,0.491l5.481,6.921h-2.215c-0.203,0-0.376-0.039-0.519-0.117c-0.144-0.079-0.279-0.201-0.408-0.367
			l-4.609-5.744c-0.139-0.193-0.276-0.32-0.415-0.381c-0.139-0.06-0.346-0.09-0.623-0.09h-0.692v6.699h-2.478V209.31H620.931z"/>
		<path d="M637.623,215.455c0.84,0,1.614,0.141,2.325,0.422c0.71,0.281,1.324,0.688,1.841,1.218
			c0.517,0.531,0.921,1.186,1.211,1.966c0.291,0.779,0.437,1.668,0.437,2.664c0,0.388-0.042,0.646-0.125,0.775
			s-0.24,0.193-0.471,0.193h-9.329c0.019,0.886,0.139,1.656,0.36,2.312s0.525,1.202,0.913,1.641s0.85,0.766,1.385,0.982
			s1.135,0.325,1.799,0.325c0.618,0,1.151-0.071,1.599-0.215c0.447-0.143,0.833-0.297,1.156-0.463
			c0.322-0.166,0.593-0.321,0.81-0.464c0.217-0.144,0.403-0.215,0.561-0.215c0.203,0,0.359,0.079,0.471,0.235l0.691,0.899
			c-0.304,0.369-0.669,0.69-1.093,0.962c-0.425,0.272-0.879,0.496-1.363,0.672c-0.484,0.175-0.985,0.307-1.502,0.395
			c-0.517,0.087-1.029,0.131-1.536,0.131c-0.97,0-1.862-0.163-2.679-0.491c-0.816-0.327-1.522-0.807-2.118-1.439
			c-0.595-0.632-1.059-1.414-1.391-2.346s-0.498-2.002-0.498-3.211c0-0.979,0.149-1.892,0.449-2.741
			c0.3-0.849,0.731-1.585,1.295-2.207c0.562-0.623,1.25-1.112,2.062-1.468C635.694,215.633,636.607,215.455,637.623,215.455z
			 M637.679,217.268c-1.19,0-2.128,0.344-2.811,1.031s-1.107,1.641-1.273,2.858h7.627c0-0.572-0.079-1.096-0.235-1.571
			c-0.157-0.475-0.388-0.886-0.692-1.231s-0.676-0.613-1.114-0.803S638.241,217.268,637.679,217.268z"/>
		<path d="M650.827,229.919c-1.107,0-1.959-0.31-2.554-0.928c-0.596-0.618-0.894-1.509-0.894-2.671v-8.582h-1.688
			c-0.147,0-0.272-0.043-0.373-0.131c-0.103-0.088-0.152-0.224-0.152-0.409v-0.982l2.297-0.29l0.568-4.333
			c0.018-0.138,0.078-0.251,0.18-0.339s0.23-0.132,0.388-0.132h1.245v4.831h4.014v1.785h-4.014v8.416c0,0.59,0.144,1.028,0.43,1.314
			c0.285,0.286,0.654,0.429,1.106,0.429c0.259,0,0.482-0.034,0.672-0.104c0.188-0.069,0.353-0.146,0.491-0.229
			s0.256-0.159,0.353-0.229c0.098-0.068,0.183-0.104,0.257-0.104c0.129,0,0.244,0.079,0.346,0.235l0.72,1.177
			c-0.425,0.396-0.937,0.708-1.536,0.935C652.081,229.806,651.463,229.919,650.827,229.919z"/>
		<path d="M664.931,217.987c-0.111,0.203-0.281,0.305-0.513,0.305c-0.138,0-0.295-0.051-0.47-0.152
			c-0.176-0.102-0.391-0.214-0.645-0.339s-0.556-0.24-0.906-0.346c-0.351-0.106-0.766-0.159-1.245-0.159
			c-0.416,0-0.789,0.053-1.122,0.159c-0.332,0.105-0.615,0.251-0.851,0.436s-0.415,0.399-0.54,0.644
			c-0.124,0.245-0.187,0.51-0.187,0.796c0,0.36,0.104,0.66,0.312,0.899c0.207,0.24,0.481,0.448,0.823,0.623
			c0.341,0.176,0.729,0.33,1.162,0.464c0.435,0.134,0.88,0.277,1.336,0.429c0.457,0.152,0.902,0.321,1.336,0.506
			s0.821,0.415,1.163,0.691c0.341,0.277,0.615,0.616,0.823,1.018c0.207,0.401,0.312,0.884,0.312,1.446
			c0,0.646-0.116,1.244-0.347,1.793s-0.572,1.024-1.023,1.426c-0.453,0.401-1.006,0.717-1.661,0.947
			c-0.655,0.231-1.412,0.347-2.271,0.347c-0.978,0-1.863-0.159-2.657-0.478s-1.467-0.727-2.021-1.226l0.581-0.94
			c0.074-0.12,0.161-0.213,0.263-0.277s0.235-0.097,0.401-0.097s0.342,0.064,0.526,0.193c0.185,0.13,0.408,0.272,0.671,0.43
			c0.264,0.157,0.582,0.3,0.955,0.429c0.374,0.13,0.842,0.194,1.405,0.194c0.479,0,0.899-0.062,1.26-0.188
			c0.359-0.124,0.659-0.293,0.899-0.505s0.417-0.457,0.533-0.733c0.115-0.277,0.173-0.572,0.173-0.886
			c0-0.388-0.104-0.708-0.312-0.962c-0.208-0.254-0.482-0.471-0.823-0.651c-0.342-0.18-0.731-0.336-1.17-0.47
			s-0.886-0.274-1.343-0.423c-0.457-0.147-0.904-0.315-1.343-0.505s-0.828-0.427-1.169-0.713c-0.342-0.286-0.616-0.639-0.824-1.059
			c-0.207-0.42-0.312-0.93-0.312-1.529c0-0.535,0.111-1.05,0.333-1.544c0.221-0.493,0.544-0.927,0.969-1.301
			c0.424-0.374,0.945-0.671,1.563-0.893s1.324-0.332,2.118-0.332c0.923,0,1.751,0.145,2.484,0.436s1.368,0.69,1.903,1.197
			L664.931,217.987z"/>
		<path d="M668.114,228.175c0-0.24,0.044-0.466,0.132-0.679c0.088-0.212,0.208-0.396,0.359-0.553
			c0.152-0.157,0.335-0.282,0.547-0.374c0.213-0.093,0.438-0.139,0.679-0.139c0.239,0,0.466,0.046,0.678,0.139
			c0.212,0.092,0.396,0.217,0.554,0.374c0.157,0.156,0.279,0.341,0.367,0.553c0.087,0.213,0.131,0.438,0.131,0.679
			c0,0.249-0.044,0.478-0.131,0.686c-0.088,0.207-0.21,0.39-0.367,0.546c-0.157,0.157-0.342,0.279-0.554,0.367
			s-0.438,0.132-0.678,0.132c-0.24,0-0.466-0.044-0.679-0.132c-0.212-0.088-0.395-0.21-0.547-0.367
			c-0.151-0.156-0.271-0.339-0.359-0.546C668.158,228.652,668.114,228.424,668.114,228.175z"/>
	</g>
</g>
<rect x="295.721" y="163.98" fill="#CB8A2B" width="80" height="5"/>
<g>
</g>
<g>
</g>
<g>
</g>
<g>
</g>
<g>
</g>
<g>
</g>
</svg>
