<?xml version="1.0" encoding="utf-8"?>
<!DOCTYPE svg PUBLIC "-//W3C//DTD SVG 1.1//EN" "http://www.w3.org/Graphics/SVG/1.1/DTD/svg11.dtd">
<svg version="1.1" id="Layer_1" xmlns="http://www.w3.org/2000/svg" xmlns:xlink="http://www.w3.org/1999/xlink" x="0px" y="0px"
	 width="316px" height="322px" viewBox="0 0 316 322" enable-background="new 0 0 316 322" xml:space="preserve">
<style>
	.spin {
		transform-origin: center;
		transform-box: fill-box;
		animation: rotate 6000ms linear infinite;
	}
	.dot {
		animation: color 2000ms infinite;
		fill: none;
	}
	.two {
		animation-delay: 100ms;
	}
	.three {
		animation-delay: 200ms;
	}
	.four {
		animation-delay: 300ms;
	}
	.five {
		animation-delay: 400ms;
	}
	@keyframes rotate {
		100% {
			transform: rotate(-360deg);
		}
	}
	@keyframes color {
		100% {
			fill: #b2b2b2;
		}
	}
</style>
<g>
	<g>
		<g opacity="0.15">
			<g>
				<path fill="#B4B4B4" d="M68.095,232.506c-11.32-0.126-20.657,9.231-20.566,20.775c0.085,10.859,9.321,20.308,20.032,20.465
					c11.415,0.167,21.081-9.684,20.631-20.736C88.567,242.285,79.767,232.636,68.095,232.506 M268.482,252.979
					c-0.124-11.345-8.743-20.212-19.883-20.475c-10.948-0.259-20.805,8.053-20.852,20.481
					c-0.047,12.978,10.791,21.201,20.371,20.662C258.396,274.176,268.611,264.87,268.482,252.979 M68.155,90.556
					c11.217-0.133,20.234-9.138,20.149-21.007c-0.083-11.477-9.177-20.294-20.477-20.25c-12.734,0.05-20.788,10.861-20.206,20.752
					C47.159,79.637,55.272,90.708,68.155,90.556 M158.202,311.708c11.115-0.005,20.329-9.562,20.261-21.013
					c-0.066-11.146-9.53-20.641-20.447-20.511c-11.341,0.136-20.464,9.466-20.403,20.867
					C137.673,302.498,146.86,311.713,158.202,311.708 M51.001,161.184c-0.143-11.454-9.194-20.467-20.4-20.509
					c-11.275-0.043-20.521,9.48-20.422,20.821c0.1,11.5,9.271,20.721,20.566,20.677C41.919,182.13,51.145,172.698,51.001,161.184
					 M158.065,52.659c11.201-0.007,20.397-9.424,20.397-20.889c0-11.157-9.357-20.658-20.334-20.646
					c-11.28,0.012-20.529,9.364-20.526,20.754C137.605,43.349,146.778,52.664,158.065,52.659 M285.705,182.184
					c11.162-0.091,20.303-9.647,20.185-21.103c-0.115-11.155-9.568-20.557-20.545-20.431c-11.283,0.129-20.401,9.541-20.315,20.97
					C265.115,173.047,274.395,182.275,285.705,182.184 M88.487,276.063c-13.657,11.86-31.5,9.342-41.717-0.551
					c-9.812-9.501-14.203-27.909-1.571-43.499c-7.443-12.192-12.733-25.399-16.114-39.342c-1.559-0.304-2.902-0.588-4.253-0.827
					C13.78,189.891,1.876,180.469,0.174,164.48c-1.707-16.032,9.302-30.608,24.991-33.524c1.332-0.247,2.653-0.558,3.491-0.734
					c2.431-7.106,4.422-13.936,7.102-20.475c2.681-6.541,6.049-12.791,9.16-19.259c-11.905-14.649-8.268-32.338,0.557-41.74
					c4.86-5.179,10.668-8.562,17.619-9.572c9.521-1.384,18.058,1.138,25.384,7.651c12.223-7.725,25.236-13.033,38.831-16.479
					c0.29-1.583,0.527-2.852,0.753-4.123c2.619-14.773,15.369-25.463,30.256-25.367c14.671,0.095,27.197,10.92,29.689,25.645
					c0.23,1.355,0.541,2.697,0.801,3.983c22.988,5.698,42.454,17.277,59.285,33.962c-2.43,2.605-4.614,4.944-6.946,7.441
					c-15.353-14.952-32.84-25.847-53.644-31.059c-0.819,1.854-1.479,3.547-2.295,5.157c-5.617,11.103-17.125,18.378-30.512,16.776
					c-11.613-1.389-19.966-7.854-24.797-18.804c-0.458-1.037-0.94-2.063-1.42-3.113c-12.013,3.202-23.164,7.671-33.475,14.258
					c5.67,12.953,4.881,25.049-4.486,35.45c-10.446,11.598-23.265,12.968-37.221,6.873c-6.346,10.677-10.952,21.928-13.867,34.051
					c13.446,5.354,21.518,14.932,21.593,29.766c0.076,14.991-8.04,24.656-21.61,30.161c2.994,12.162,7.579,23.493,13.94,34.099
					c12.787-5.771,24.687-4.982,34.922,4.542c11.407,10.614,12.759,23.641,6.768,37.84c10.52,6.416,21.575,11.127,33.495,14.078
					c5.402-13.771,14.912-22.018,29.659-21.942c14.596,0.074,24.014,8.283,29.213,21.752c8.186-1.107,28.27-9.553,33.506-14.28
					c-5.525-12.537-4.795-24.546,4.377-34.932c10.431-11.812,23.33-13.213,37.432-7.142c6.393-10.684,10.939-21.954,13.881-33.979
					c-14.585-6.056-22.822-16.669-21.466-32.761c1.289-15.31,10.659-24.282,25.022-28.033c0.541-4.715,0.348-112.838-0.236-115.235
					c-5.743,3.48-11.447,6.937-17.35,10.513c-1.762-3.001-3.418-5.823-5.184-8.832c9.484-5.78,18.738-11.417,28.055-17.094
					c9.407,5.737,18.661,11.379,28.059,17.109c-1.795,3.057-3.463,5.893-5.172,8.803c-6.037-3.482-11.633-7.217-17.7-10.607v115.276
					c16.596,5.378,25.216,15.79,25.362,30.431c0.069,6.93-1.892,13.215-5.92,18.75c-5.75,7.904-13.736,11.905-22.668,12.795
					c-2.473,7.203-4.476,14.03-7.156,20.569c-2.681,6.541-6.037,12.796-9.135,19.255c11.521,14.086,8.574,31.584-0.156,41.284
					c-4.832,5.367-10.688,8.901-17.744,9.984c-9.622,1.479-18.281-0.995-25.598-7.626c-12.244,7.656-25.125,13.036-38.979,16.484
					c-0.837,8.517-3.981,15.869-10.325,21.589c-6.346,5.722-13.788,8.334-22.233,7.847c-11.102-0.64-26.19-8.483-28.784-29.45
					C113.575,289.082,100.519,283.63,88.487,276.063"/>
				<path class="spin" fill="#B4B4B4" d="M158.564,218.431c31.241-0.35,55.834-26.206,55.532-57.557c-0.307-31.645-25.828-57.094-57.258-56.433
					c-30.461,0.64-54.856,25.808-54.935,57.218C102.142,193.289,127.442,218.779,158.564,218.431 M195.48,216.998
					c2.572,4.553,5.082,8.992,7.688,13.602c-3.012,1.781-5.803,3.432-8.732,5.164c-2.715-4.691-5.278-9.121-7.896-13.644
					c-7.537,3.726-15.341,5.53-23.563,6.554v15.449h-9.985v-15.469c-8.231-1.044-16.049-2.793-23.491-6.556
					c-2.669,4.621-5.23,9.054-7.893,13.667c-2.969-1.757-5.77-3.414-8.698-5.146c2.611-4.661,5.108-9.118,7.65-13.654
					c-6.812-4.893-12.405-10.719-17.219-17.441c-4.526,2.635-8.835,5.142-13.347,7.769c-1.7-2.931-3.35-5.777-5.11-8.811
					c4.57-2.745,8.988-5.4,13.447-8.078c-3.695-7.675-5.455-15.521-6.396-23.936H76.711v-10.231h15.255
					c0.807-8.403,2.817-16.268,6.316-23.805c-4.608-2.762-8.963-5.372-13.419-8.044c1.808-3.094,3.465-5.929,5.154-8.816
					c4.569,2.67,8.873,5.188,13.321,7.787c4.837-6.826,10.485-12.595,17.204-17.443c-2.591-4.644-5.072-9.093-7.637-13.691
					c3.025-1.764,5.82-3.395,8.719-5.084c2.715,4.713,5.265,9.139,7.862,13.646c7.614-3.797,15.414-5.573,23.609-6.565V78.736h9.951
					v15.617c8.261,0.696,15.984,2.788,23.496,6.381c2.681-4.622,5.28-9.104,7.901-13.621c3.091,1.82,5.828,3.432,8.688,5.116
					c-2.62,4.677-5.116,9.135-7.655,13.668c6.832,4.902,12.453,10.692,17.185,17.458c4.582-2.663,8.89-5.167,13.396-7.788
					c1.695,2.961,3.328,5.813,5.068,8.854c-4.518,2.691-8.879,5.289-13.421,7.996c3.585,7.617,5.54,15.499,6.349,23.821
					c5.275,0.198,10.332-0.115,15.287,0.166v10.19h-15.004c-0.845,4.25-1.449,8.297-2.486,12.225
					c-1.033,3.918-2.498,7.718-3.851,11.803c4.312,2.562,8.677,5.157,13.147,7.815c-1.767,3.096-3.4,5.957-5.06,8.863
					c-4.565-2.646-8.884-5.149-13.44-7.789C207.789,206.465,202.155,212.119,195.48,216.998"/>
				<rect class="dot one" x="300.947" y="114.983" fill="#B4B4B4" width="9.785" height="9.91"/>
				<path class="dot two" fill="#B4B4B4" d="M310.75,104.18v-9.855h-9.648c-0.641,1.482-0.213,3.205-0.286,4.87
					c-0.071,1.595-0.017,3.196-0.017,4.985H310.75z"/>
				<path class="dot three" fill="#B4B4B4" d="M310.697,73.534h-9.715v10.021c3.096,0.281,6.308-0.013,9.715,0.121V73.534z"/>
				<path class="dot four" fill="#B4B4B4" d="M300.787,62.869h9.877V52.84h-9.811C300.676,56.059,300.873,59.322,300.787,62.869"/>
				<path class="dot five" fill="#B4B4B4" d="M300.91,32.125v9.914h9.906c0.158-3.204,0.088-6.463-0.031-9.914H300.91z"/>
				<path fill="#B4B4B4" d="M157.909,135.493c-13.961-0.061-25.47,11.834-25.423,26.05c0.047,14.203,11.65,25.973,25.648,25.819
					c14.256-0.156,25.298-11.677,25.429-26.049C183.244,146.701,172.045,135.551,157.909,135.493 M193.678,160.995
					c0.239,19.337-14.99,36.017-34.511,36.658c-20.376,0.671-36.693-16.3-36.807-35.95c-0.115-19.93,15.925-36.444,35.308-36.486
					C177.441,125.128,193.434,141.139,193.678,160.995"/>
			</g>
		</g>
	</g>
</g>
<g>
</g>
<g>
</g>
<g>
</g>
<g>
</g>
<g>
</g>
<g>
</g>
</svg>
