<?xml version="1.0" encoding="utf-8"?>
<!DOCTYPE svg PUBLIC "-//W3C//DTD SVG 1.1//EN" "http://www.w3.org/Graphics/SVG/1.1/DTD/svg11.dtd">
<svg version="1.1" id="Layer_1" xmlns="http://www.w3.org/2000/svg" xmlns:xlink="http://www.w3.org/1999/xlink" x="0px" y="0px"
	 width="416.156px" height="317.263px" viewBox="0 -0.002 416.156 317.263" enable-background="new 0 -0.002 416.156 317.263"
	 xml:space="preserve">
<style>
	.move {
		animation: glass 5s infinite;
		overflow: auto;
	}
	@keyframes glass {
		0% {
			transform: translate(30px, 0);
		}
		25% {
			transform: translate(30px, 20px);
		}
		50% {
			transform: translate(-20px, 20px);
		}
		75% {
			transform: translate(0, -10px);
		}
		100% {
			transform: translate(30px, 0);
		}
	}
</style>
<g>
	<path fill="#F4F4F4" d="M135.772,161.087c5.024,23.835,10.014,47.487,14.968,71.144c0.139,0.662-0.115,1.407-0.228,2.534
		c-22.049-5.909-40.661-16.859-56.144-32.977C96.441,176.634,116.517,160.443,135.772,161.087z"/>
	<path fill="#F4F4F4" d="M192.616,159.853c6.316,1.222,11.942,1.83,17.266,3.438c12.514,3.779,19.686,13.166,24.473,24.743
		c0.853,2.062,0.498,4.079-0.771,5.888c-3.014,4.299-5.697,8.901-9.171,12.793c-12.079,13.528-28.071,20.868-45.165,28.018
		C183.681,209.388,188.062,184.811,192.616,159.853z"/>
	<path fill="#F4F4F4" d="M176.443,215.938c-3.611,5.123-7.26,10.303-11.265,15.987c-4.687-5.422-8.958-10.363-13.698-15.85
		c2.97-14.708,6.001-29.719,9.091-45.021c-3.047-3.493-6.091-6.984-9.638-11.049c9.726,0,18.679,0,28.401,0
		c-3.326,4.026-6.272,7.592-9.402,11.381C172.081,186.099,174.245,200.907,176.443,215.938z"/>
	<path fill="#F4F4F4" d="M192.586,92.098c-0.29-0.47-0.51-1.006-0.88-1.4c-8.159-8.655-18.22-12.423-30.007-11.268
		c-12.42,1.218-22.009,6.94-27.826,18.298c-0.346,0.429-0.8,0.809-1.026,1.294c-12.283,26.392,7.59,52.786,32.832,51.997
		c14.699-0.459,25.926-7.052,31.79-20.414C203.337,117.229,202.537,103.876,192.586,92.098z"/>
</g>
<path class="move" fill="#F4F4F4" d="M373.61,256.71c-25.104-14.346-50.684-28.968-76.26-43.585c-2.356,2.191-4.378,4.073-6.676,6.21
	c-9.869-5.702-19.416-11.219-28.982-16.746c0.448-1.629,0.788-2.871,1.13-4.111c0.322-0.421,0.646-0.843,0.969-1.265
	c0.064-0.354,0.104-0.712,0.118-1.073c0.312-0.396,0.626-0.792,0.938-1.188c0.054-0.38,0.108-0.759,0.164-1.137
	c0.312-0.376,0.625-0.75,0.937-1.125c0.128-0.739,0.256-1.477,0.386-2.214c5.222-9.552,6.594-20.134,7.591-30.668
	c0.67-7.068,0.078-14.254,0.052-21.389c-0.342-1.517-0.686-3.032-1.028-4.548c-0.033-1.121-0.067-2.243-0.1-3.365
	c-0.346-1.133-0.691-2.267-1.037-3.401c0.003,0,0.004,0,0.006,0c-1.36-11.344-5.536-21.768-10.991-31.633
	c-3.976-7.19-8.64-13.936-14.01-20.303c-5.757-6.826-12.354-12.493-19.341-17.856c-6.901-5.294-14.556-9.369-22.525-12.656
	c-10.024-4.134-20.306-7.68-31.355-8.062c-0.819-0.028-1.615-0.69-2.422-1.059c-7.159,0-14.321,0-21.481,0
	c-0.804,0.37-1.584,0.993-2.417,1.07c-12.229,1.13-23.806,4.604-34.902,9.722c-17.394,8.024-31.353,20.312-43.11,35.236
	c-5.835,7.406-10.363,15.655-13.947,24.31c-7.136,17.229-9.574,35.299-8.428,53.87c0.051,0.835,0.673,1.634,1.029,2.451
	c0.395,11.556,3.998,22.336,8.564,32.747c2.597,5.92,6.312,11.35,9.522,17c0.407,0.749,0.817,1.496,1.225,2.243
	c0.348,0.39,0.695,0.779,1.042,1.171c0.438,0.744,0.875,1.488,1.313,2.233c0.327,0.351,0.653,0.702,0.979,1.054l0.037,0.039
	c0.354,0.397,0.71,0.792,1.064,1.189c0.816,1.123,1.631,2.247,2.446,3.37c0.328,0.334,0.656,0.666,0.984,0.998l0.081,0.085
	c0.345,0.374,0.691,0.748,1.038,1.12l0.024,0.024c0.364,0.383,0.729,0.763,1.093,1.145c0.375,0.382,0.751,0.762,1.126,1.144
	l-0.008-0.008c0.377,0.384,0.756,0.766,1.135,1.148l-0.013-0.013c0.38,0.38,0.761,0.763,1.143,1.145l-0.015-0.013
	c0.383,0.382,0.765,0.763,1.148,1.146c2.329,2.145,4.578,4.386,7,6.421c17.498,14.674,37.875,22.907,60.388,24.99
	c14.546,1.345,29.134,0.434,43.442-3.986c17.39-5.372,32.715-13.953,45.862-26.44c4.319-4.104,8.314-8.549,12.431-12.809
	c9.584,5.176,19.125,10.329,28.541,15.412c3.34,1.134,1.372,2.675-2.802,8.782c0.888,0.691,1.692,1.496,2.648,2.029
	c7.55,4.217,15.136,8.368,22.696,12.565c15.941,8.851,31.9,17.668,47.786,26.619c3.353,1.889,6.616,2.146,10.273,1.268
	C370.89,283.42,380.193,267.03,373.61,256.71z M222.234,216.917c-12.314,11.353-26.753,18.538-43.011,22.006
	c-5.82,1.242-11.886,2.312-17.776,2.048c-11.945-0.533-23.793-2.098-35.071-6.711c-11.095-4.541-20.576-11.454-29.696-19.004
	c-3.254-3.849-6.753-7.516-9.714-11.578c-7.798-10.7-13.197-22.583-16.03-35.515c-0.991-4.523-1.104-9.237-1.619-13.865
	c0.04-3.199,0.024-6.398,0.129-9.594c0.492-14.91,4.877-28.688,12.195-41.599c3.814-6.729,8.532-12.932,13.992-18.234
	c8.615-8.366,18.368-15.335,29.664-20c8.034-3.317,16.373-5.646,24.874-6.408c8.144-0.729,16.405-0.704,24.692,0.542
	c14.653,2.202,27.648,8.029,39.616,16.348c10.304,7.161,18.293,16.557,24.723,27.315c4.747,7.941,8.251,16.349,10.132,25.424
	c0.1,0.479,0.645,0.867,0.982,1.296c0.027,0.755,0.057,1.507,0.083,2.261c0.344,1.142,0.686,2.283,1.028,3.424
	c0.036,1.874,0.074,3.75,0.112,5.623c0.14,0.119,0.385,0.222,0.406,0.359c0.85,5.551,1.495,11.101-0.4,16.585
	c-0.454,11.165-4.027,21.483-8.575,31.535c-0.536,1.186-1.096,2.361-1.646,3.54C236.128,201.704,229.903,209.85,222.234,216.917z"/>
</svg>
