<?xml version="1.0" encoding="utf-8"?>
<!DOCTYPE svg PUBLIC "-//W3C//DTD SVG 1.1//EN" "http://www.w3.org/Graphics/SVG/1.1/DTD/svg11.dtd">
<svg version="1.1" id="Layer_1" xmlns="http://www.w3.org/2000/svg" xmlns:xlink="http://www.w3.org/1999/xlink" x="0px" y="0px"
	 width="415px" height="715px" viewBox="0 0 415 715" enable-background="new 0 0 291.155 221.964"
	 xml:space="preserve">
<style>
	.move {
		animation: glass 5s infinite;
		overflow: auto;
	}
	@keyframes glass {
		0% {
			transform: translate(30px, 0);
		}
		25% {
			transform: translate(30px, 20px);
		}
		50% {
			transform: translate(10px, 60px);
		}
		75% {
			transform: translate(0, -10px);
		}
		100% {
			transform: translate(30px, 0);
		}
	}
</style>
<g>
	<path fill-rule="evenodd" clip-rule="evenodd" fill="#f4f4f4" d="M78.854,111.042c4.444,21.082,8.857,42,13.239,62.924
		c0.123,0.586-0.102,1.244-0.202,2.241c-19.502-5.226-35.963-14.911-49.657-29.167C44.067,124.793,61.823,110.472,78.854,111.042z"
		/>
	<path fill-rule="evenodd" clip-rule="evenodd" fill="#f4f4f4" d="M129.131,109.95c5.586,1.081,10.562,1.619,15.271,3.041
		c11.068,3.343,17.411,11.645,21.645,21.884c0.754,1.824,0.44,3.608-0.682,5.208c-2.666,3.802-5.039,7.872-8.112,11.315
		c-10.683,11.966-24.827,18.457-39.946,24.78C121.227,153.762,125.102,132.025,129.131,109.95z"/>
	<path fill-rule="evenodd" clip-rule="evenodd" fill="#f4f4f4" d="M114.826,159.556c-3.194,4.532-6.421,9.113-9.963,14.14
		c-4.145-4.795-7.922-9.166-12.115-14.018c2.626-13.009,5.307-26.285,8.04-39.82c-2.695-3.09-5.388-6.177-8.525-9.773
		c8.602,0,16.521,0,25.121,0c-2.942,3.561-5.548,6.715-8.316,10.066C110.968,133.164,112.882,146.262,114.826,159.556z"/>
	<path fill-rule="evenodd" clip-rule="evenodd" fill="#f4f4f4" d="M129.104,50.024c-0.257-0.416-0.451-0.89-0.779-1.238
		c-7.216-7.655-16.114-10.988-26.54-9.966C90.8,39.897,82.319,44.958,77.174,55.004c-0.307,0.379-0.708,0.715-0.908,1.144
		c-10.863,23.342,6.713,46.687,29.038,45.989c13.001-0.406,22.931-6.237,28.117-18.055
		C138.613,72.251,137.905,60.441,129.104,50.024z"/>
</g>
<path class="move" fill="#f4f4f4" d="M289.213,195.617c-22.203-12.689-44.828-25.621-67.449-38.549
	c-2.084,1.938-3.872,3.602-5.904,5.492c-8.729-5.043-17.173-9.922-25.634-14.811c0.396-1.441,0.697-2.539,0.999-3.636
	c0.285-0.373,0.571-0.745,0.857-1.118c0.057-0.314,0.092-0.631,0.104-0.949c0.277-0.351,0.554-0.701,0.83-1.051
	c0.049-0.336,0.097-0.671,0.145-1.006c0.276-0.332,0.553-0.663,0.829-0.994c0.113-0.653,0.227-1.306,0.341-1.958
	c4.619-8.448,5.832-17.808,6.714-27.126c0.593-6.251,0.069-12.607,0.046-18.917c-0.303-1.341-0.607-2.682-0.91-4.022
	c-0.029-0.992-0.059-1.984-0.088-2.977c-0.306-1.002-0.611-2.005-0.917-3.008c0.002,0,0.003,0,0.005,0
	c-1.203-10.033-4.897-19.252-9.721-27.978c-3.516-6.36-7.641-12.326-12.391-17.957c-5.092-6.038-10.926-11.05-17.107-15.793
	c-6.103-4.683-12.874-8.287-19.922-11.194c-8.866-3.657-17.96-6.792-27.733-7.13c-0.724-0.025-1.428-0.611-2.142-0.937
	c-6.333,0-12.667,0-19,0c-0.711,0.327-1.402,0.878-2.137,0.946C78.212,1.944,67.972,5.016,58.158,9.543
	c-15.384,7.097-27.73,17.965-38.129,31.165c-5.161,6.551-9.166,13.846-12.336,21.501C1.382,77.448-0.775,93.43,0.239,109.855
	c0.045,0.739,0.595,1.446,0.91,2.168c0.349,10.221,3.536,19.756,7.575,28.963c2.297,5.236,5.582,10.039,8.422,15.037
	c0.361,0.661,0.723,1.322,1.084,1.983c0.308,0.345,0.615,0.69,0.922,1.036c0.387,0.658,0.775,1.316,1.162,1.975
	c0.289,0.311,0.577,0.621,0.865,0.932l0.033,0.035c0.314,0.351,0.628,0.701,0.942,1.051c0.721,0.994,1.442,1.988,2.163,2.982
	c0.29,0.295,0.58,0.589,0.87,0.883l0.072,0.074c0.305,0.331,0.611,0.662,0.917,0.992l0.022,0.021
	c0.322,0.338,0.645,0.675,0.967,1.012c0.332,0.338,0.664,0.674,0.996,1.012l-0.007-0.007c0.334,0.339,0.669,0.677,1.004,1.015
	l-0.012-0.011c0.337,0.337,0.674,0.675,1.011,1.013l-0.012-0.012c0.338,0.338,0.676,0.676,1.015,1.014
	c2.06,1.897,4.049,3.879,6.192,5.678c15.475,12.979,33.499,20.262,53.411,22.104c12.866,1.189,25.768,0.383,38.423-3.526
	c15.381-4.751,28.936-12.342,40.563-23.386c3.821-3.629,7.354-7.561,10.995-11.328c8.477,4.577,16.916,9.135,25.244,13.631
	c2.953,1.003,1.213,2.366-2.479,7.768c0.785,0.611,1.497,1.323,2.342,1.795c6.678,3.729,13.388,7.4,20.074,11.113
	c14.1,7.828,28.215,15.627,42.265,23.543c2.965,1.671,5.852,1.899,9.087,1.121C286.806,219.24,295.035,204.745,289.213,195.617z
	 M155.326,160.422c-10.891,10.04-23.662,16.396-38.042,19.463c-5.148,1.098-10.512,2.045-15.722,1.812
	c-10.565-0.472-21.045-1.856-31.019-5.937c-9.813-4.016-18.199-10.131-26.265-16.808c-2.878-3.403-5.974-6.647-8.592-10.24
	c-6.897-9.464-11.672-19.974-14.178-31.412c-0.876-4-0.977-8.17-1.432-12.263c0.035-2.829,0.021-5.659,0.114-8.485
	c0.435-13.188,4.313-25.374,10.786-36.793c3.373-5.952,7.547-11.438,12.375-16.127c7.62-7.4,16.246-13.564,26.237-17.689
	c7.106-2.934,14.481-4.995,22-5.668c7.203-0.645,14.509-0.623,21.839,0.479c12.96,1.947,24.454,7.101,35.04,14.459
	c9.113,6.334,16.179,14.644,21.866,24.159c4.198,7.024,7.298,14.46,8.962,22.487c0.088,0.424,0.57,0.767,0.869,1.147
	c0.024,0.667,0.05,1.333,0.074,2c0.304,1.01,0.606,2.019,0.909,3.028c0.032,1.658,0.065,3.316,0.099,4.974
	c0.124,0.105,0.341,0.196,0.359,0.317c0.752,4.91,1.322,9.818-0.354,14.669c-0.402,9.875-3.562,19.001-7.584,27.892
	c-0.474,1.049-0.97,2.088-1.456,3.131C167.615,146.967,162.109,154.17,155.326,160.422z"/>
<g>
</g>
<g>
</g>
<g>
</g>
<g>
</g>
<g>
</g>
<g>
</g>
</svg>
